%FSLAX34Y34*%
%MOMM*%
%LNSILK_TOP*%
G71*
G01*
%ADD10C, 0.152*%
%ADD11C, 0.500*%
%ADD12C, 0.032*%
%ADD13C, 0.127*%
%ADD14C, 0.150*%
%ADD15C, 0.600*%
%ADD16C, 1.300*%
%ADD17R, 1.200X0.500*%
%ADD18R, 0.500X1.200*%
%ADD19C, 0.203*%
%ADD20C, 0.100*%
%LPD*%
G54D10*
X-15000Y-10863D02*
X-15000Y-14951D01*
X-10910Y-14951D01*
G54D10*
X-15000Y10963D02*
X-15000Y15051D01*
X-10910Y15051D01*
G54D10*
X10913Y15051D02*
X15003Y15051D01*
X15003Y10963D01*
G54D10*
X15003Y-10863D02*
X15003Y-14951D01*
X10913Y-14951D01*
X-15000Y15051D02*
G54D11*
D03*
G54D12*
X17305Y8056D02*
X17216Y8279D01*
X17038Y8390D01*
X16860Y8390D01*
X16682Y8279D01*
X16593Y8056D01*
X16593Y7834D01*
X16682Y7612D01*
X16860Y7501D01*
X17038Y7501D01*
X17216Y7390D01*
X17305Y7168D01*
X17305Y6945D01*
X17216Y6723D01*
X17038Y6612D01*
X16860Y6612D01*
X16682Y6723D01*
X16593Y6945D01*
G54D12*
X15260Y8056D02*
X15349Y8279D01*
X15527Y8390D01*
X15705Y8390D01*
X15883Y8279D01*
X15972Y8056D01*
X15972Y6945D01*
X15883Y6723D01*
X15705Y6612D01*
X15527Y6612D01*
X15349Y6723D01*
X15260Y6945D01*
G54D12*
X14639Y6612D02*
X14639Y8390D01*
X14016Y8390D01*
G54D12*
X13395Y8390D02*
X13395Y6612D01*
G54D12*
X13395Y7834D02*
X12683Y6612D01*
G54D12*
X13128Y7501D02*
X12683Y8390D01*
G54D12*
X8391Y16781D02*
X6613Y16336D01*
X8391Y15892D01*
G54D12*
X6613Y15270D02*
X8391Y15270D01*
X8391Y14825D01*
X8280Y14647D01*
X8057Y14559D01*
X6946Y14559D01*
X6724Y14647D01*
X6613Y14825D01*
X6613Y15270D01*
G54D12*
X6613Y13937D02*
X8391Y13937D01*
X8391Y13492D01*
X8280Y13314D01*
X8057Y13226D01*
X6946Y13226D01*
X6724Y13314D01*
X6613Y13492D01*
X6613Y13937D01*
G54D12*
X1612Y16684D02*
X3390Y16684D01*
X1612Y15972D01*
X3390Y15972D01*
G54D12*
X1612Y14639D02*
X3390Y15351D01*
G54D12*
X1945Y13306D02*
X1723Y13395D01*
X1612Y13573D01*
X1612Y13751D01*
X1723Y13929D01*
X1945Y14018D01*
X3056Y14018D01*
X3278Y13929D01*
X3390Y13751D01*
X3390Y13573D01*
X3278Y13395D01*
X3056Y13306D01*
G54D12*
X-3389Y16684D02*
X-1612Y16684D01*
X-3389Y15973D01*
X-1612Y15973D01*
G54D12*
X-3389Y14640D02*
X-1612Y15351D01*
G54D12*
X-3056Y13307D02*
X-3278Y13396D01*
X-3389Y13574D01*
X-3389Y13752D01*
X-3278Y13929D01*
X-3056Y14018D01*
X-1945Y14018D01*
X-1723Y13929D01*
X-1612Y13752D01*
X-1612Y13574D01*
X-1723Y13396D01*
X-1945Y13307D01*
G54D12*
X-6610Y18780D02*
X-8388Y18336D01*
X-6610Y17891D01*
G54D12*
X-8388Y17269D02*
X-6610Y17269D01*
X-6610Y16647D01*
G54D12*
X-7499Y17269D02*
X-7499Y16647D01*
G54D12*
X-6610Y16025D02*
X-8388Y16025D01*
X-8388Y15403D01*
G54D12*
X-8388Y14781D02*
X-6610Y14337D01*
X-8388Y13892D01*
G54D12*
X-7722Y14603D02*
X-7722Y14070D01*
G54D12*
X-8055Y13270D02*
X-8277Y13181D01*
X-8388Y13004D01*
X-8388Y12826D01*
X-8277Y12648D01*
X-8055Y12559D01*
X-7833Y12559D01*
X-7610Y12648D01*
X-7499Y12826D01*
X-7499Y13004D01*
X-7388Y13181D01*
X-7166Y13270D01*
X-6944Y13270D01*
X-6722Y13181D01*
X-6610Y13004D01*
X-6610Y12826D01*
X-6722Y12648D01*
X-6944Y12559D01*
G54D12*
X-8388Y11937D02*
X-6610Y11937D01*
G54D12*
X-8388Y11226D02*
X-6610Y11226D01*
G54D12*
X-7499Y11937D02*
X-7499Y11226D01*
G54D12*
X-14556Y3390D02*
X-15001Y1612D01*
X-15445Y3390D01*
G54D12*
X-14734Y2724D02*
X-15268Y2724D01*
G54D12*
X-12912Y-6613D02*
X-12912Y-8390D01*
X-13356Y-7279D01*
X-13801Y-8390D01*
X-13801Y-6613D01*
G54D12*
X-15134Y-8057D02*
X-15134Y-6946D01*
X-15045Y-6724D01*
X-14867Y-6613D01*
X-14689Y-6613D01*
X-14512Y-6724D01*
X-14423Y-6946D01*
X-14423Y-8057D01*
X-14512Y-8279D01*
X-14689Y-8390D01*
X-14867Y-8390D01*
X-15045Y-8279D01*
X-15134Y-8057D01*
G54D12*
X-15756Y-6946D02*
X-15845Y-6724D01*
X-16022Y-6613D01*
X-16200Y-6613D01*
X-16378Y-6724D01*
X-16467Y-6946D01*
X-16467Y-7168D01*
X-16378Y-7390D01*
X-16200Y-7501D01*
X-16022Y-7501D01*
X-15845Y-7613D01*
X-15756Y-7835D01*
X-15756Y-8057D01*
X-15845Y-8279D01*
X-16022Y-8390D01*
X-16200Y-8390D01*
X-16378Y-8279D01*
X-16467Y-8057D01*
G54D12*
X-17089Y-6613D02*
X-17089Y-8390D01*
G54D12*
X16685Y3389D02*
X16685Y1611D01*
X15974Y3389D01*
X15974Y1611D01*
G54D12*
X15352Y3389D02*
X14641Y1611D01*
G54D12*
X13308Y3056D02*
X13397Y3278D01*
X13575Y3389D01*
X13752Y3389D01*
X13930Y3278D01*
X14019Y3056D01*
X14019Y1945D01*
X13930Y1723D01*
X13752Y1611D01*
X13575Y1611D01*
X13397Y1723D01*
X13308Y1945D01*
G54D12*
X16685Y-6613D02*
X16685Y-8390D01*
X15974Y-6613D01*
X15974Y-8390D01*
G54D12*
X15352Y-6613D02*
X14641Y-8390D01*
G54D12*
X13308Y-6946D02*
X13397Y-6724D01*
X13575Y-6613D01*
X13753Y-6613D01*
X13930Y-6724D01*
X14019Y-6946D01*
X14019Y-8057D01*
X13930Y-8279D01*
X13753Y-8390D01*
X13575Y-8390D01*
X13397Y-8279D01*
X13308Y-8057D01*
G54D12*
X-14645Y-3389D02*
X-15356Y-3389D01*
X-14645Y-1611D01*
X-15356Y-1611D01*
G54D12*
X16685Y-1611D02*
X16685Y-3389D01*
X15974Y-1611D01*
X15974Y-3389D01*
G54D12*
X15352Y-1611D02*
X14641Y-3389D01*
G54D12*
X13308Y-1944D02*
X13397Y-1722D01*
X13575Y-1611D01*
X13753Y-1611D01*
X13930Y-1722D01*
X14019Y-1944D01*
X14019Y-3056D01*
X13930Y-3278D01*
X13753Y-3389D01*
X13575Y-3389D01*
X13397Y-3278D01*
X13308Y-3055D01*
G54D12*
X-8055Y-14690D02*
X-8277Y-14602D01*
X-8388Y-14424D01*
X-8388Y-14246D01*
X-8277Y-14068D01*
X-8055Y-13979D01*
X-6944Y-13979D01*
X-6722Y-14068D01*
X-6610Y-14246D01*
X-6610Y-14424D01*
X-6722Y-14602D01*
X-6944Y-14690D01*
G54D12*
X-8055Y-15312D02*
X-8277Y-15401D01*
X-8388Y-15579D01*
X-8388Y-15757D01*
X-8277Y-15935D01*
X-8055Y-16023D01*
X-7833Y-16023D01*
X-7610Y-15935D01*
X-7499Y-15757D01*
X-7499Y-15579D01*
X-7388Y-15401D01*
X-7166Y-15312D01*
X-6944Y-15312D01*
X-6722Y-15401D01*
X-6610Y-15579D01*
X-6610Y-15757D01*
X-6722Y-15935D01*
X-6944Y-16023D01*
G54D12*
X-3389Y-14646D02*
X-1612Y-14646D01*
X-1612Y-15091D01*
X-1723Y-15269D01*
X-1945Y-15357D01*
X-2167Y-15357D01*
X-2389Y-15269D01*
X-2500Y-15091D01*
X-2612Y-15269D01*
X-2834Y-15357D01*
X-3056Y-15357D01*
X-3278Y-15269D01*
X-3389Y-15091D01*
X-3389Y-14646D01*
G54D12*
X-2500Y-14646D02*
X-2500Y-15091D01*
G54D12*
X1614Y-12913D02*
X3392Y-12913D01*
X2281Y-13358D01*
X3392Y-13802D01*
X1614Y-13802D01*
G54D12*
X1614Y-14424D02*
X3392Y-14424D01*
G54D12*
X1948Y-15046D02*
X1725Y-15135D01*
X1614Y-15313D01*
X1614Y-15491D01*
X1725Y-15669D01*
X1948Y-15757D01*
X2170Y-15757D01*
X2392Y-15669D01*
X2503Y-15491D01*
X2503Y-15313D01*
X2614Y-15135D01*
X2836Y-15046D01*
X3059Y-15046D01*
X3281Y-15135D01*
X3392Y-15313D01*
X3392Y-15491D01*
X3281Y-15669D01*
X3059Y-15757D01*
G54D12*
X3059Y-17090D02*
X1948Y-17090D01*
X1725Y-17002D01*
X1614Y-16824D01*
X1614Y-16646D01*
X1725Y-16468D01*
X1948Y-16379D01*
X3059Y-16379D01*
X3281Y-16468D01*
X3392Y-16646D01*
X3392Y-16824D01*
X3281Y-17002D01*
X3059Y-17090D01*
G54D12*
X7502Y-13669D02*
X7502Y-14024D01*
X6947Y-14024D01*
X6724Y-13936D01*
X6613Y-13758D01*
X6613Y-13580D01*
X6724Y-13402D01*
X6947Y-13313D01*
X8058Y-13313D01*
X8280Y-13402D01*
X8391Y-13580D01*
X8391Y-13758D01*
X8280Y-13936D01*
X8058Y-14024D01*
G54D12*
X6613Y-14646D02*
X8391Y-14646D01*
X6613Y-15357D01*
X8391Y-15357D01*
G54D12*
X6613Y-15979D02*
X8391Y-15979D01*
X8391Y-16424D01*
X8280Y-16602D01*
X8058Y-16690D01*
X6947Y-16690D01*
X6724Y-16602D01*
X6613Y-16424D01*
X6613Y-15979D01*
G54D12*
X-13318Y8390D02*
X-13318Y6612D01*
X-14029Y8390D01*
X-14029Y6612D01*
G54D12*
X-14651Y8390D02*
X-15362Y6612D01*
G54D12*
X-16695Y8056D02*
X-16607Y8279D01*
X-16429Y8390D01*
X-16251Y8390D01*
X-16073Y8279D01*
X-15984Y8056D01*
X-15984Y6945D01*
X-16073Y6723D01*
X-16251Y6612D01*
X-16429Y6612D01*
X-16607Y6723D01*
X-16695Y6945D01*
G54D13*
X-26937Y20749D02*
X-26937Y14971D01*
X-26581Y14082D01*
X-25870Y13638D01*
X-25159Y13638D01*
X-24448Y14082D01*
X-24092Y14971D01*
X-24092Y20749D01*
G54D13*
X-21604Y18082D02*
X-19826Y20749D01*
X-19826Y13638D01*
G54D13*
X-21056Y-121443D02*
X-21056Y-114332D01*
X-19279Y-118777D01*
X-17501Y-114332D01*
X-17501Y-121443D01*
G54D13*
X-15012Y-121443D02*
X-15012Y-114332D01*
G54D13*
X-12522Y-120110D02*
X-12167Y-120999D01*
X-11456Y-121443D01*
X-10745Y-121443D01*
X-10034Y-120999D01*
X-9678Y-120110D01*
X-9678Y-119221D01*
X-10034Y-118332D01*
X-10745Y-117888D01*
X-11456Y-117888D01*
X-12167Y-117443D01*
X-12522Y-116554D01*
X-12522Y-115665D01*
X-12167Y-114777D01*
X-11456Y-114332D01*
X-10745Y-114332D01*
X-10034Y-114777D01*
X-9678Y-115665D01*
G54D13*
X-4345Y-115665D02*
X-4345Y-120110D01*
X-4701Y-120999D01*
X-5412Y-121443D01*
X-6123Y-121443D01*
X-6834Y-120999D01*
X-7190Y-120110D01*
X-7190Y-115665D01*
X-6834Y-114777D01*
X-6123Y-114332D01*
X-5412Y-114332D01*
X-4701Y-114777D01*
X-4345Y-115665D01*
G54D13*
X-46456Y-121443D02*
X-46456Y-114332D01*
X-44678Y-118777D01*
X-42900Y-114332D01*
X-42900Y-121443D01*
G54D13*
X-37567Y-115665D02*
X-37567Y-120110D01*
X-37922Y-120999D01*
X-38633Y-121443D01*
X-39344Y-121443D01*
X-40055Y-120999D01*
X-40411Y-120110D01*
X-40411Y-115665D01*
X-40055Y-114777D01*
X-39344Y-114332D01*
X-38633Y-114332D01*
X-37922Y-114777D01*
X-37567Y-115665D01*
G54D13*
X-35078Y-120110D02*
X-34722Y-120999D01*
X-34011Y-121443D01*
X-33300Y-121443D01*
X-32589Y-120999D01*
X-32234Y-120110D01*
X-32234Y-119221D01*
X-32589Y-118332D01*
X-33300Y-117888D01*
X-34011Y-117888D01*
X-34722Y-117443D01*
X-35078Y-116554D01*
X-35078Y-115665D01*
X-34722Y-114777D01*
X-34011Y-114332D01*
X-33300Y-114332D01*
X-32589Y-114777D01*
X-32234Y-115665D01*
G54D13*
X-29745Y-121443D02*
X-29745Y-114332D01*
G54D13*
X11456Y-120110D02*
X11101Y-120999D01*
X10390Y-121443D01*
X9679Y-121443D01*
X8968Y-120999D01*
X8612Y-120110D01*
X8612Y-115665D01*
X8968Y-114777D01*
X9679Y-114332D01*
X10390Y-114332D01*
X11101Y-114777D01*
X11456Y-115665D01*
G54D13*
X13945Y-120110D02*
X14301Y-120999D01*
X15012Y-121443D01*
X15723Y-121443D01*
X16434Y-120999D01*
X16789Y-120110D01*
X16789Y-119221D01*
X16434Y-118332D01*
X15723Y-117888D01*
X15012Y-117888D01*
X14301Y-117443D01*
X13945Y-116554D01*
X13945Y-115665D01*
X14301Y-114777D01*
X15012Y-114332D01*
X15723Y-114332D01*
X16434Y-114777D01*
X16789Y-115665D01*
G54D13*
X31379Y-120110D02*
X31735Y-120999D01*
X32446Y-121443D01*
X33157Y-121443D01*
X33868Y-120999D01*
X34223Y-120110D01*
X34223Y-119221D01*
X33868Y-118332D01*
X33157Y-117888D01*
X32446Y-117888D01*
X31735Y-117443D01*
X31379Y-116554D01*
X31379Y-115665D01*
X31735Y-114777D01*
X32446Y-114332D01*
X33157Y-114332D01*
X33868Y-114777D01*
X34223Y-115665D01*
G54D13*
X39556Y-120110D02*
X39201Y-120999D01*
X38490Y-121443D01*
X37779Y-121443D01*
X37068Y-120999D01*
X36712Y-120110D01*
X36712Y-115665D01*
X37068Y-114777D01*
X37779Y-114332D01*
X38490Y-114332D01*
X39201Y-114777D01*
X39556Y-115665D01*
G54D13*
X42045Y-121443D02*
X42045Y-114332D01*
G54D13*
X42045Y-119221D02*
X44889Y-114332D01*
G54D13*
X43112Y-117888D02*
X44889Y-121443D01*
G54D13*
X-27178Y-94456D02*
X-25401Y-87345D01*
X-23623Y-94456D01*
G54D13*
X-26467Y-91789D02*
X-24334Y-91789D01*
G54D13*
X-1422Y-94432D02*
X-1422Y-87321D01*
X355Y-87321D01*
X1066Y-87766D01*
X1422Y-88654D01*
X1422Y-89543D01*
X1066Y-90432D01*
X355Y-90877D01*
X1066Y-91321D01*
X1422Y-92210D01*
X1422Y-93099D01*
X1066Y-93988D01*
X355Y-94432D01*
X-1422Y-94432D01*
G54D13*
X-1422Y-90877D02*
X355Y-90877D01*
G54D13*
X24000Y-87321D02*
X26844Y-87321D01*
X24000Y-94432D01*
X26844Y-94432D01*
G54D13*
X-75234Y-110332D02*
X-73811Y-110332D01*
X-73811Y-112554D01*
X-74167Y-113443D01*
X-74878Y-113887D01*
X-75589Y-113887D01*
X-76300Y-113443D01*
X-76656Y-112554D01*
X-76656Y-108110D01*
X-76300Y-107221D01*
X-75589Y-106776D01*
X-74878Y-106776D01*
X-74167Y-107221D01*
X-73811Y-108110D01*
G54D13*
X-71323Y-113887D02*
X-71323Y-106776D01*
X-68478Y-113887D01*
X-68478Y-106776D01*
G54D13*
X-65990Y-113887D02*
X-65990Y-106776D01*
X-64212Y-106776D01*
X-63501Y-107221D01*
X-63145Y-108110D01*
X-63145Y-112554D01*
X-63501Y-113443D01*
X-64212Y-113887D01*
X-65990Y-113887D01*
G54D13*
X63665Y-106776D02*
X65443Y-113887D01*
X67221Y-106776D01*
G54D13*
X72555Y-112554D02*
X72199Y-113443D01*
X71488Y-113887D01*
X70777Y-113887D01*
X70066Y-113443D01*
X69710Y-112554D01*
X69710Y-108110D01*
X70066Y-107221D01*
X70777Y-106776D01*
X71488Y-106776D01*
X72199Y-107221D01*
X72555Y-108110D01*
G54D13*
X77888Y-112554D02*
X77532Y-113443D01*
X76821Y-113887D01*
X76110Y-113887D01*
X75399Y-113443D01*
X75043Y-112554D01*
X75043Y-108110D01*
X75399Y-107221D01*
X76110Y-106776D01*
X76821Y-106776D01*
X77532Y-107221D01*
X77888Y-108110D01*
G54D14*
X-1149Y47108D02*
X-1148Y51871D01*
X-13849Y51871D01*
X-13849Y47108D01*
G54D14*
X-1149Y29646D02*
X-1149Y24883D01*
X-13849Y24883D01*
X-13849Y29646D01*
X-7498Y38377D02*
G54D15*
D03*
G54D13*
X-22129Y26905D02*
X-22485Y26016D01*
X-23196Y25571D01*
X-23907Y25571D01*
X-24618Y26016D01*
X-24974Y26905D01*
X-24974Y31349D01*
X-24618Y32238D01*
X-23907Y32682D01*
X-23196Y32682D01*
X-22485Y32238D01*
X-22129Y31349D01*
G54D13*
X-19641Y30016D02*
X-17863Y32682D01*
X-17863Y25571D01*
G54D14*
X27782Y-8731D02*
X27782Y-13494D01*
X40482Y-13494D01*
X40482Y-8731D01*
G54D14*
X27782Y8732D02*
X27782Y13494D01*
X40482Y13494D01*
X40482Y8732D01*
X34131Y0D02*
G54D15*
D03*
G54D13*
X31986Y17348D02*
X31630Y16459D01*
X30919Y16014D01*
X30208Y16014D01*
X29497Y16459D01*
X29141Y17348D01*
X29141Y21792D01*
X29497Y22681D01*
X30208Y23125D01*
X30919Y23125D01*
X31630Y22681D01*
X31986Y21792D01*
G54D13*
X37319Y16014D02*
X34474Y16014D01*
X34474Y16459D01*
X34830Y17348D01*
X36963Y20014D01*
X37319Y20903D01*
X37319Y21792D01*
X36963Y22681D01*
X36252Y23125D01*
X35541Y23125D01*
X34830Y22681D01*
X34474Y21792D01*
G54D13*
X-142566Y889D02*
X-140788Y3556D01*
X-140788Y-3555D01*
G54D13*
X-136521Y1D02*
X-137232Y1D01*
X-137943Y445D01*
X-138299Y1334D01*
X-138299Y2223D01*
X-137943Y3112D01*
X-137232Y3556D01*
X-136521Y3556D01*
X-135810Y3112D01*
X-135455Y2223D01*
X-135455Y1334D01*
X-135810Y445D01*
X-136521Y1D01*
X-135810Y-444D01*
X-135455Y-1333D01*
X-135455Y-2222D01*
X-135810Y-3111D01*
X-136521Y-3555D01*
X-137232Y-3555D01*
X-137943Y-3111D01*
X-138299Y-2222D01*
X-138299Y-1333D01*
X-137943Y-444D01*
X-137232Y1D01*
G54D13*
X-130122Y2223D02*
X-130122Y-2222D01*
X-130477Y-3111D01*
X-131188Y-3555D01*
X-131899Y-3555D01*
X-132610Y-3111D01*
X-132966Y-2222D01*
X-132966Y2223D01*
X-132610Y3112D01*
X-131899Y3556D01*
X-131188Y3556D01*
X-130477Y3112D01*
X-130122Y2223D01*
G54D13*
X-4089Y137089D02*
X-3733Y136200D01*
X-3022Y135755D01*
X-2311Y135755D01*
X-1600Y136200D01*
X-1244Y137089D01*
X-1244Y139311D01*
X-1244Y139755D01*
X-2311Y138866D01*
X-3022Y138866D01*
X-3733Y139311D01*
X-4089Y140200D01*
X-4089Y141533D01*
X-3733Y142422D01*
X-3022Y142866D01*
X-2311Y142866D01*
X-1600Y142422D01*
X-1244Y141533D01*
X-1244Y139311D01*
G54D13*
X4089Y141533D02*
X4089Y137089D01*
X3733Y136200D01*
X3022Y135755D01*
X2311Y135755D01*
X1600Y136200D01*
X1244Y137089D01*
X1244Y141533D01*
X1600Y142422D01*
X2311Y142866D01*
X3022Y142866D01*
X3733Y142422D01*
X4089Y141533D01*
G54D13*
X-3910Y-144835D02*
X-6755Y-144835D01*
X-6755Y-144391D01*
X-6399Y-143502D01*
X-4266Y-140835D01*
X-3910Y-139946D01*
X-3910Y-139058D01*
X-4266Y-138169D01*
X-4977Y-137724D01*
X-5688Y-137724D01*
X-6399Y-138169D01*
X-6755Y-139058D01*
G54D13*
X-1422Y-137724D02*
X1423Y-137724D01*
X1067Y-138613D01*
X356Y-139946D01*
X-355Y-141724D01*
X-711Y-143058D01*
X-711Y-144835D01*
G54D13*
X6756Y-139058D02*
X6756Y-143502D01*
X6400Y-144391D01*
X5689Y-144835D01*
X4978Y-144835D01*
X4267Y-144391D01*
X3911Y-143502D01*
X3911Y-139058D01*
X4267Y-138169D01*
X4978Y-137724D01*
X5689Y-137724D01*
X6400Y-138169D01*
X6756Y-139058D01*
G54D13*
X143565Y8176D02*
X143565Y3732D01*
X143210Y2843D01*
X142499Y2398D01*
X141787Y2398D01*
X141076Y2843D01*
X140721Y3732D01*
X140721Y8176D01*
X141076Y9065D01*
X141787Y9509D01*
X142499Y9509D01*
X143210Y9065D01*
X143565Y8176D01*
G54D13*
X130055Y-3730D02*
X130411Y-2841D01*
X131122Y-2397D01*
X131833Y-2397D01*
X132544Y-2841D01*
X132900Y-3730D01*
X132900Y-4619D01*
X132544Y-5508D01*
X131833Y-5952D01*
X132544Y-6397D01*
X132900Y-7286D01*
X132900Y-8175D01*
X132544Y-9064D01*
X131833Y-9508D01*
X131122Y-9508D01*
X130411Y-9064D01*
X130055Y-8175D01*
G54D13*
X138233Y-3730D02*
X137877Y-2841D01*
X137166Y-2397D01*
X136455Y-2397D01*
X135744Y-2841D01*
X135388Y-3730D01*
X135388Y-5952D01*
X135388Y-6397D01*
X136455Y-5508D01*
X137166Y-5508D01*
X137877Y-5952D01*
X138233Y-6841D01*
X138233Y-8175D01*
X137877Y-9064D01*
X137166Y-9508D01*
X136455Y-9508D01*
X135744Y-9064D01*
X135388Y-8175D01*
X135388Y-5952D01*
G54D13*
X143566Y-3730D02*
X143566Y-8175D01*
X143210Y-9064D01*
X142499Y-9508D01*
X141788Y-9508D01*
X141077Y-9064D01*
X140721Y-8175D01*
X140721Y-3730D01*
X141077Y-2841D01*
X141788Y-2397D01*
X142499Y-2397D01*
X143210Y-2841D01*
X143566Y-3730D01*
X152500Y1D02*
G54D16*
D03*
X0Y152501D02*
G54D16*
D03*
X-152500Y1D02*
G54D16*
D03*
X0Y-152499D02*
G54D16*
D03*
X152500Y1D02*
G54D17*
D03*
G36*
X156526Y25062D02*
X144708Y22978D01*
X143840Y27902D01*
X155658Y29986D01*
X156526Y25062D01*
G37*
G36*
X149796Y51862D02*
X138520Y47758D01*
X136810Y52456D01*
X148086Y56560D01*
X149796Y51862D01*
G37*
G36*
X138515Y77086D02*
X128122Y71086D01*
X125622Y75416D01*
X136015Y81416D01*
X138515Y77086D01*
G37*
G36*
X123025Y99967D02*
X113832Y92254D01*
X110618Y96084D01*
X119811Y103798D01*
X123025Y99967D01*
G37*
G36*
X103797Y119812D02*
X96083Y110619D01*
X92253Y113833D01*
X99966Y123026D01*
X103797Y119812D01*
G37*
G36*
X81415Y136016D02*
X75415Y125623D01*
X71085Y128123D01*
X77085Y138516D01*
X81415Y136016D01*
G37*
G36*
X56559Y148087D02*
X52455Y136811D01*
X47756Y138521D01*
X51861Y149797D01*
X56559Y148087D01*
G37*
G36*
X29985Y155659D02*
X27901Y143841D01*
X22977Y144709D01*
X25061Y156527D01*
X29985Y155659D01*
G37*
X0Y152501D02*
G54D18*
D03*
G36*
X-25061Y156527D02*
X-22978Y144709D01*
X-27902Y143841D01*
X-29985Y155659D01*
X-25061Y156527D01*
G37*
G36*
X-51861Y149797D02*
X-47757Y138521D01*
X-52455Y136811D01*
X-56560Y148087D01*
X-51861Y149797D01*
G37*
G36*
X-77085Y138516D02*
X-71085Y128123D01*
X-75415Y125623D01*
X-81415Y136016D01*
X-77085Y138516D01*
G37*
G36*
X-99967Y123026D02*
X-92254Y113833D01*
X-96084Y110619D01*
X-103797Y119812D01*
X-99967Y123026D01*
G37*
G36*
X-119811Y103798D02*
X-110619Y96084D01*
X-113833Y92254D01*
X-123025Y99967D01*
X-119811Y103798D01*
G37*
G36*
X-136015Y81416D02*
X-125623Y75416D01*
X-128123Y71086D01*
X-138515Y77086D01*
X-136015Y81416D01*
G37*
G36*
X-148086Y56560D02*
X-136810Y52456D01*
X-138520Y47757D01*
X-149797Y51862D01*
X-148086Y56560D01*
G37*
G36*
X-155658Y29986D02*
X-143840Y27902D01*
X-144709Y22978D01*
X-156526Y25062D01*
X-155658Y29986D01*
G37*
X-152500Y1D02*
G54D17*
D03*
G36*
X-156526Y-25060D02*
X-144709Y-22977D01*
X-143840Y-27901D01*
X-155658Y-29984D01*
X-156526Y-25060D01*
G37*
G36*
X-149797Y-51860D02*
X-138520Y-47756D01*
X-136810Y-52454D01*
X-148086Y-56559D01*
X-149797Y-51860D01*
G37*
G36*
X-138515Y-77084D02*
X-128123Y-71084D01*
X-125623Y-75414D01*
X-136015Y-81414D01*
X-138515Y-77084D01*
G37*
G36*
X-123025Y-99966D02*
X-113833Y-92253D01*
X-110619Y-96083D01*
X-119811Y-103796D01*
X-123025Y-99966D01*
G37*
G36*
X-103797Y-119810D02*
X-96084Y-110618D01*
X-92254Y-113832D01*
X-99967Y-123024D01*
X-103797Y-119810D01*
G37*
G36*
X-81415Y-136014D02*
X-75415Y-125622D01*
X-71085Y-128122D01*
X-77085Y-138514D01*
X-81415Y-136014D01*
G37*
G36*
X-56560Y-148086D02*
X-52455Y-136809D01*
X-47757Y-138519D01*
X-51861Y-149796D01*
X-56560Y-148086D01*
G37*
G36*
X-29986Y-155657D02*
X-27902Y-143840D01*
X-22978Y-144708D01*
X-25061Y-156525D01*
X-29986Y-155657D01*
G37*
X0Y-152499D02*
G54D18*
D03*
G36*
X25061Y-156525D02*
X22977Y-144708D01*
X27901Y-143840D01*
X29985Y-155657D01*
X25061Y-156525D01*
G37*
G36*
X51861Y-149796D02*
X47756Y-138519D01*
X52455Y-136809D01*
X56559Y-148086D01*
X51861Y-149796D01*
G37*
G36*
X77085Y-138514D02*
X71085Y-128122D01*
X75415Y-125622D01*
X81415Y-136014D01*
X77085Y-138514D01*
G37*
G36*
X99966Y-123024D02*
X92253Y-113832D01*
X96083Y-110618D01*
X103797Y-119810D01*
X99966Y-123024D01*
G37*
G36*
X119811Y-103796D02*
X110618Y-96083D01*
X113832Y-92253D01*
X123025Y-99966D01*
X119811Y-103796D01*
G37*
G36*
X136015Y-81414D02*
X125622Y-75414D01*
X128122Y-71084D01*
X138515Y-77084D01*
X136015Y-81414D01*
G37*
G36*
X148086Y-56559D02*
X136810Y-52454D01*
X138520Y-47756D01*
X149796Y-51860D01*
X148086Y-56559D01*
G37*
G36*
X155658Y-29984D02*
X143840Y-27901D01*
X144708Y-22977D01*
X156526Y-25060D01*
X155658Y-29984D01*
G37*
G54D19*
X79414Y-9492D02*
X85434Y-9492D01*
X85434Y-1490D01*
G54D19*
X63412Y-9492D02*
X57418Y-9492D01*
X57418Y-1490D01*
G54D13*
X67872Y22848D02*
X67872Y17070D01*
X68227Y16181D01*
X68938Y15737D01*
X69650Y15737D01*
X70361Y16181D01*
X70716Y17070D01*
X70716Y22848D01*
G54D13*
X76049Y15737D02*
X73205Y15737D01*
X73205Y16181D01*
X73560Y17070D01*
X75694Y19737D01*
X76049Y20626D01*
X76049Y21515D01*
X75694Y22404D01*
X74982Y22848D01*
X74271Y22848D01*
X73560Y22403D01*
X73205Y21515D01*
G54D14*
X102345Y8733D02*
X102345Y13495D01*
X89645Y13496D01*
X89645Y8733D01*
G54D14*
X102345Y-8730D02*
X102345Y-13492D01*
X89645Y-13492D01*
X89645Y-8730D01*
X95996Y1D02*
G54D15*
D03*
G54D13*
X96315Y17349D02*
X95960Y16460D01*
X95248Y16015D01*
X94537Y16015D01*
X93826Y16460D01*
X93471Y17349D01*
X93471Y21793D01*
X93826Y22682D01*
X94537Y23127D01*
X95248Y23127D01*
X95960Y22682D01*
X96315Y21793D01*
G54D13*
X100937Y16015D02*
X100937Y23127D01*
X98804Y18682D01*
X98804Y17793D01*
X101648Y17793D01*
G54D14*
X40482Y-8731D02*
X40482Y-13493D01*
X53182Y-13493D01*
X53182Y-8731D01*
G54D14*
X40482Y8732D02*
X40482Y13494D01*
X53182Y13494D01*
X53182Y8732D01*
X46831Y0D02*
G54D15*
D03*
G54D13*
X44164Y-21546D02*
X43808Y-22435D01*
X43097Y-22879D01*
X42386Y-22879D01*
X41675Y-22435D01*
X41319Y-21546D01*
X41319Y-17102D01*
X41675Y-16213D01*
X42386Y-15768D01*
X43097Y-15768D01*
X43808Y-16213D01*
X44164Y-17102D01*
G54D13*
X46652Y-17102D02*
X47008Y-16213D01*
X47719Y-15768D01*
X48430Y-15768D01*
X49141Y-16213D01*
X49497Y-17102D01*
X49497Y-17990D01*
X49141Y-18879D01*
X48430Y-19324D01*
X49141Y-19768D01*
X49497Y-20657D01*
X49497Y-21546D01*
X49141Y-22435D01*
X48430Y-22879D01*
X47719Y-22879D01*
X47008Y-22435D01*
X46652Y-21546D01*
G54D14*
X23872Y100013D02*
X28635Y100012D01*
X28635Y112713D01*
X23872Y112713D01*
G54D14*
X6410Y100013D02*
X1648Y100013D01*
X1647Y112713D01*
X6410Y112713D01*
G36*
X18141Y109362D02*
X18141Y103362D01*
X12141Y103362D01*
X12141Y109362D01*
X18141Y109362D01*
G37*
G54D13*
X13432Y120318D02*
X14498Y119429D01*
X14854Y118540D01*
X14854Y116762D01*
G54D13*
X12010Y116762D02*
X12010Y123874D01*
X13787Y123874D01*
X14498Y123429D01*
X14854Y122540D01*
X14854Y121651D01*
X14498Y120762D01*
X13787Y120318D01*
X12010Y120318D01*
G54D13*
X17342Y121207D02*
X19120Y123874D01*
X19120Y116762D01*
G54D14*
X-5416Y100013D02*
X-653Y100012D01*
X-653Y112713D01*
X-5416Y112713D01*
G54D14*
X-22878Y100013D02*
X-27641Y100013D01*
X-27641Y112713D01*
X-22878Y112713D01*
G36*
X-16538Y106362D02*
X-13363Y103187D01*
X-11775Y103187D01*
X-11775Y109537D01*
X-13363Y109537D01*
X-16538Y106362D01*
G37*
G54D20*
X-16538Y106362D02*
X-13363Y103187D01*
X-11775Y103187D01*
X-11775Y109537D01*
X-13363Y109537D01*
X-16538Y106362D01*
G54D13*
X-17278Y116762D02*
X-17278Y123874D01*
X-15501Y123874D01*
X-14790Y123429D01*
X-14434Y122540D01*
X-14434Y118096D01*
X-14790Y117207D01*
X-15501Y116762D01*
X-17278Y116762D01*
G54D13*
X-11946Y121207D02*
X-10168Y123874D01*
X-10168Y116762D01*
G54D14*
X3614Y51871D02*
X17901Y51871D01*
X17901Y24883D01*
X3614Y24883D01*
X3614Y51871D01*
G54D13*
X6943Y54943D02*
X14055Y56721D01*
X6943Y58499D01*
G54D13*
X14055Y60988D02*
X6943Y60988D01*
X6943Y63477D01*
G54D13*
X10499Y60988D02*
X10499Y63477D01*
G54D13*
X6943Y65966D02*
X14055Y65966D01*
X14055Y68455D01*
G54D13*
X14055Y70944D02*
X6943Y72722D01*
X14055Y74500D01*
G54D13*
X11388Y71655D02*
X11388Y73789D01*
G54D13*
X12721Y76989D02*
X13610Y77345D01*
X14055Y78056D01*
X14055Y78767D01*
X13610Y79478D01*
X12721Y79834D01*
X11832Y79834D01*
X10943Y79478D01*
X10499Y78767D01*
X10499Y78056D01*
X10055Y77345D01*
X9166Y76989D01*
X8277Y76989D01*
X7388Y77345D01*
X6943Y78056D01*
X6943Y78767D01*
X7388Y79478D01*
X8277Y79834D01*
G54D13*
X14055Y82322D02*
X6943Y82322D01*
G54D13*
X14055Y85167D02*
X6943Y85167D01*
G54D13*
X10499Y82322D02*
X10499Y85167D01*
M02*
