%FSLAX34Y34*%
%MOMM*%
%LNSILK_BOTTOM*%
G71*
G01*
%ADD10C, 0.127*%
%ADD11C, 1.300*%
%ADD12R, 1.200X0.500*%
%ADD13R, 0.500X1.200*%
%ADD14R, 10.592X0.025*%
%ADD15R, 10.820X0.025*%
%ADD16R, 10.947X0.025*%
%ADD17R, 11.024X0.025*%
%ADD18R, 11.100X0.025*%
%ADD19R, 11.151X0.025*%
%ADD20R, 11.201X0.025*%
%ADD21R, 11.252X0.025*%
%ADD22R, 11.303X0.025*%
%ADD23R, 11.328X0.025*%
%ADD24R, 11.379X0.025*%
%ADD25R, 11.430X0.025*%
%ADD26R, 11.455X0.025*%
%ADD27R, 11.481X0.025*%
%ADD28R, 10.693X0.025*%
%ADD29R, 0.787X0.025*%
%ADD30R, 10.668X0.025*%
%ADD31R, 0.762X0.025*%
%ADD32R, 0.737X0.025*%
%ADD33R, 10.643X0.025*%
%ADD34R, 10.617X0.025*%
%ADD35R, 0.711X0.025*%
%ADD36R, 0.483X0.025*%
%ADD37R, 0.533X0.025*%
%ADD38R, 0.584X0.025*%
%ADD39R, 0.356X0.025*%
%ADD40R, 0.838X0.025*%
%ADD41R, 0.330X0.025*%
%ADD42R, 0.305X0.025*%
%ADD43R, 3.150X0.025*%
%ADD44R, 0.686X0.025*%
%ADD45R, 0.508X0.025*%
%ADD46R, 0.559X0.025*%
%ADD47R, 0.813X0.025*%
%ADD48R, 0.279X0.025*%
%ADD49R, 0.457X0.025*%
%ADD50R, 0.254X0.025*%
%ADD51R, 3.124X0.025*%
%ADD52R, 0.432X0.025*%
%ADD53R, 0.229X0.025*%
%ADD54R, 0.660X0.025*%
%ADD55R, 0.406X0.025*%
%ADD56R, 0.381X0.025*%
%ADD57R, 3.175X0.025*%
%ADD58R, 0.940X0.025*%
%ADD59R, 3.226X0.025*%
%ADD60R, 0.965X0.025*%
%ADD61R, 3.251X0.025*%
%ADD62R, 0.635X0.025*%
%ADD63R, 0.203X0.025*%
%ADD64R, 0.991X0.025*%
%ADD65R, 3.277X0.025*%
%ADD66R, 0.178X0.025*%
%ADD67R, 1.016X0.025*%
%ADD68R, 3.302X0.025*%
%ADD69R, 1.041X0.025*%
%ADD70R, 3.353X0.025*%
%ADD71R, 0.152X0.025*%
%ADD72R, 3.378X0.025*%
%ADD73R, 0.127X0.025*%
%ADD74R, 3.404X0.025*%
%ADD75R, 0.610X0.025*%
%ADD76R, 0.102X0.025*%
%ADD77R, 3.429X0.025*%
%ADD78R, 3.454X0.025*%
%ADD79R, 0.076X0.025*%
%ADD80R, 3.480X0.025*%
%ADD81R, 3.505X0.025*%
%ADD82R, 3.531X0.025*%
%ADD83R, 3.556X0.025*%
%ADD84R, 3.581X0.025*%
%ADD85R, 3.607X0.025*%
%ADD86R, 3.632X0.025*%
%ADD87R, 3.658X0.025*%
%ADD88R, 0.864X0.025*%
%ADD89R, 1.651X0.025*%
%ADD90R, 1.092X0.025*%
%ADD91R, 1.118X0.025*%
%ADD92R, 1.143X0.025*%
%ADD93R, 1.168X0.025*%
%ADD94R, 7.849X0.025*%
%ADD95R, 7.823X0.025*%
%ADD96R, 7.874X0.025*%
%ADD97R, 1.295X0.025*%
%ADD98R, 1.321X0.025*%
%ADD99R, 6.833X0.025*%
%ADD100R, 0.914X0.025*%
%ADD101R, 6.807X0.025*%
%ADD102R, 6.756X0.025*%
%ADD103R, 6.731X0.025*%
%ADD104R, 6.655X0.025*%
%ADD105R, 6.604X0.025*%
%ADD106R, 6.528X0.025*%
%ADD107R, 1.346X0.025*%
%ADD108R, 0.889X0.025*%
%ADD109R, 1.372X0.025*%
%ADD110R, 1.499X0.025*%
%ADD111R, 2.159X0.025*%
%ADD112R, 2.134X0.025*%
%ADD113R, 2.108X0.025*%
%ADD114R, 1.245X0.025*%
%ADD115R, 1.219X0.025*%
%ADD116R, 1.194X0.025*%
%ADD117R, 1.067X0.025*%
%ADD118R, 4.089X0.025*%
%ADD119R, 4.039X0.025*%
%ADD120R, 4.013X0.025*%
%ADD121R, 3.988X0.025*%
%ADD122R, 3.962X0.025*%
%ADD123R, 3.912X0.025*%
%ADD124R, 3.886X0.025*%
%ADD125R, 3.861X0.025*%
%ADD126R, 3.835X0.025*%
%ADD127R, 3.810X0.025*%
%ADD128R, 3.759X0.025*%
%ADD129R, 3.708X0.025*%
%ADD130R, 3.683X0.025*%
%ADD131R, 3.099X0.025*%
%ADD132R, 1.753X0.025*%
%ADD133R, 1.727X0.025*%
%ADD134R, 1.676X0.025*%
%ADD135R, 1.626X0.025*%
%ADD136R, 1.600X0.025*%
%ADD137R, 1.549X0.025*%
%ADD138R, 1.473X0.025*%
%ADD139R, 1.422X0.025*%
%ADD140R, 1.270X0.025*%
%ADD141C, 0.159*%
%LPD*%
G54D10*
X-4344Y-121443D02*
X-4344Y-114332D01*
X-6122Y-118777D01*
X-7900Y-114332D01*
X-7900Y-121443D01*
G54D10*
X-10390Y-121443D02*
X-10390Y-114332D01*
G54D10*
X-12878Y-120110D02*
X-13234Y-120999D01*
X-13945Y-121443D01*
X-14656Y-121443D01*
X-15367Y-120999D01*
X-15723Y-120110D01*
X-15723Y-119221D01*
X-15367Y-118332D01*
X-14656Y-117888D01*
X-13945Y-117888D01*
X-13234Y-117443D01*
X-12878Y-116554D01*
X-12878Y-115665D01*
X-13234Y-114777D01*
X-13945Y-114332D01*
X-14656Y-114332D01*
X-15367Y-114777D01*
X-15723Y-115665D01*
G54D10*
X-21056Y-115665D02*
X-21056Y-120110D01*
X-20700Y-120999D01*
X-19989Y-121443D01*
X-19278Y-121443D01*
X-18567Y-120999D01*
X-18212Y-120110D01*
X-18212Y-115665D01*
X-18567Y-114777D01*
X-19278Y-114332D01*
X-19989Y-114332D01*
X-20700Y-114777D01*
X-21056Y-115665D01*
G54D10*
X-29745Y-121443D02*
X-29745Y-114332D01*
X-31523Y-118777D01*
X-33301Y-114332D01*
X-33301Y-121443D01*
G54D10*
X-38634Y-115665D02*
X-38634Y-120110D01*
X-38279Y-120999D01*
X-37568Y-121443D01*
X-36857Y-121443D01*
X-36146Y-120999D01*
X-35790Y-120110D01*
X-35790Y-115665D01*
X-36146Y-114777D01*
X-36857Y-114332D01*
X-37568Y-114332D01*
X-38279Y-114777D01*
X-38634Y-115665D01*
G54D10*
X-41123Y-120110D02*
X-41479Y-120999D01*
X-42190Y-121443D01*
X-42901Y-121443D01*
X-43612Y-120999D01*
X-43967Y-120110D01*
X-43967Y-119221D01*
X-43612Y-118332D01*
X-42901Y-117888D01*
X-42190Y-117888D01*
X-41479Y-117443D01*
X-41123Y-116554D01*
X-41123Y-115665D01*
X-41479Y-114777D01*
X-42190Y-114332D01*
X-42901Y-114332D01*
X-43612Y-114777D01*
X-43967Y-115665D01*
G54D10*
X-46456Y-121443D02*
X-46456Y-114332D01*
G54D10*
X13945Y-120110D02*
X14300Y-120999D01*
X15011Y-121443D01*
X15722Y-121443D01*
X16433Y-120999D01*
X16789Y-120110D01*
X16789Y-115665D01*
X16433Y-114777D01*
X15722Y-114332D01*
X15011Y-114332D01*
X14300Y-114777D01*
X13945Y-115665D01*
G54D10*
X11456Y-120110D02*
X11100Y-120999D01*
X10389Y-121443D01*
X9678Y-121443D01*
X8967Y-120999D01*
X8612Y-120110D01*
X8612Y-119221D01*
X8967Y-118332D01*
X9678Y-117888D01*
X10389Y-117888D01*
X11100Y-117443D01*
X11456Y-116554D01*
X11456Y-115665D01*
X11100Y-114777D01*
X10389Y-114332D01*
X9678Y-114332D01*
X8967Y-114777D01*
X8612Y-115665D01*
G54D10*
X44822Y-120110D02*
X44466Y-120999D01*
X43755Y-121443D01*
X43044Y-121443D01*
X42333Y-120999D01*
X41978Y-120110D01*
X41978Y-119221D01*
X42333Y-118332D01*
X43044Y-117888D01*
X43755Y-117888D01*
X44466Y-117443D01*
X44822Y-116554D01*
X44822Y-115665D01*
X44466Y-114777D01*
X43755Y-114332D01*
X43044Y-114332D01*
X42333Y-114777D01*
X41978Y-115665D01*
G54D10*
X36645Y-120110D02*
X37000Y-120999D01*
X37711Y-121443D01*
X38422Y-121443D01*
X39133Y-120999D01*
X39489Y-120110D01*
X39489Y-115665D01*
X39133Y-114777D01*
X38422Y-114332D01*
X37711Y-114332D01*
X37000Y-114777D01*
X36645Y-115665D01*
G54D10*
X34156Y-121443D02*
X34156Y-114332D01*
G54D10*
X34156Y-119221D02*
X31312Y-114332D01*
G54D10*
X33089Y-117888D02*
X31312Y-121443D01*
G54D10*
X-23622Y-94456D02*
X-25400Y-87345D01*
X-27178Y-94456D01*
G54D10*
X-24334Y-91789D02*
X-26467Y-91789D01*
G54D10*
X1422Y-94432D02*
X1422Y-87321D01*
X-355Y-87321D01*
X-1066Y-87766D01*
X-1422Y-88654D01*
X-1422Y-89543D01*
X-1066Y-90432D01*
X-355Y-90877D01*
X-1066Y-91321D01*
X-1422Y-92210D01*
X-1422Y-93099D01*
X-1066Y-93988D01*
X-355Y-94432D01*
X1422Y-94432D01*
G54D10*
X1422Y-90877D02*
X-355Y-90877D01*
G54D10*
X26844Y-87321D02*
X24000Y-87321D01*
X26844Y-94432D01*
X24000Y-94432D01*
G54D10*
X-64567Y-110332D02*
X-65990Y-110332D01*
X-65990Y-112554D01*
X-65634Y-113443D01*
X-64923Y-113887D01*
X-64212Y-113887D01*
X-63501Y-113443D01*
X-63145Y-112554D01*
X-63145Y-108110D01*
X-63501Y-107221D01*
X-64212Y-106776D01*
X-64923Y-106776D01*
X-65634Y-107221D01*
X-65990Y-108110D01*
G54D10*
X-68478Y-113887D02*
X-68478Y-106776D01*
X-71323Y-113887D01*
X-71323Y-106776D01*
G54D10*
X-73811Y-113887D02*
X-73811Y-106776D01*
X-75589Y-106776D01*
X-76300Y-107221D01*
X-76656Y-108110D01*
X-76656Y-112554D01*
X-76300Y-113443D01*
X-75589Y-113887D01*
X-73811Y-113887D01*
G54D10*
X77934Y-106776D02*
X76156Y-113887D01*
X74378Y-106776D01*
G54D10*
X69044Y-112554D02*
X69400Y-113443D01*
X70111Y-113887D01*
X70822Y-113887D01*
X71533Y-113443D01*
X71889Y-112554D01*
X71889Y-108110D01*
X71533Y-107221D01*
X70822Y-106776D01*
X70111Y-106776D01*
X69400Y-107221D01*
X69044Y-108110D01*
G54D10*
X63711Y-112554D02*
X64067Y-113443D01*
X64778Y-113887D01*
X65489Y-113887D01*
X66200Y-113443D01*
X66556Y-112554D01*
X66556Y-108110D01*
X66200Y-107221D01*
X65489Y-106776D01*
X64778Y-106776D01*
X64067Y-107221D01*
X63711Y-108110D01*
G54D10*
X4089Y137089D02*
X3733Y136200D01*
X3022Y135755D01*
X2311Y135755D01*
X1600Y136200D01*
X1244Y137089D01*
X1244Y139311D01*
X1244Y139755D01*
X2311Y138866D01*
X3022Y138866D01*
X3733Y139311D01*
X4089Y140200D01*
X4089Y141533D01*
X3733Y142422D01*
X3022Y142866D01*
X2311Y142866D01*
X1600Y142422D01*
X1244Y141533D01*
X1244Y139311D01*
G54D10*
X-4089Y141533D02*
X-4089Y137089D01*
X-3733Y136200D01*
X-3022Y135755D01*
X-2311Y135755D01*
X-1600Y136200D01*
X-1244Y137089D01*
X-1244Y141533D01*
X-1600Y142422D01*
X-2311Y142866D01*
X-3022Y142866D01*
X-3733Y142422D01*
X-4089Y141533D01*
G54D10*
X3911Y-144835D02*
X6755Y-144835D01*
X6755Y-144391D01*
X6400Y-143502D01*
X4266Y-140835D01*
X3911Y-139946D01*
X3911Y-139058D01*
X4266Y-138169D01*
X4977Y-137724D01*
X5689Y-137724D01*
X6400Y-138169D01*
X6755Y-139058D01*
G54D10*
X1422Y-137724D02*
X-1422Y-137724D01*
X-1067Y-138613D01*
X-356Y-139946D01*
X356Y-141724D01*
X711Y-143058D01*
X711Y-144835D01*
G54D10*
X-6755Y-139058D02*
X-6755Y-143502D01*
X-6400Y-144391D01*
X-5689Y-144835D01*
X-4977Y-144835D01*
X-4266Y-144391D01*
X-3911Y-143502D01*
X-3911Y-139058D01*
X-4266Y-138169D01*
X-4977Y-137724D01*
X-5689Y-137724D01*
X-6400Y-138169D01*
X-6755Y-139058D01*
X152500Y1D02*
G54D11*
D03*
X0Y152501D02*
G54D11*
D03*
X-152500Y1D02*
G54D11*
D03*
X0Y-152499D02*
G54D11*
D03*
X152500Y1D02*
G54D12*
D03*
G36*
X156526Y25062D02*
X144708Y22978D01*
X143840Y27902D01*
X155658Y29986D01*
X156526Y25062D01*
G37*
G36*
X149796Y51862D02*
X138520Y47758D01*
X136810Y52456D01*
X148086Y56560D01*
X149796Y51862D01*
G37*
G36*
X138515Y77086D02*
X128122Y71086D01*
X125622Y75416D01*
X136015Y81416D01*
X138515Y77086D01*
G37*
G36*
X123025Y99967D02*
X113832Y92254D01*
X110618Y96084D01*
X119811Y103798D01*
X123025Y99967D01*
G37*
G36*
X103797Y119812D02*
X96083Y110619D01*
X92253Y113833D01*
X99966Y123026D01*
X103797Y119812D01*
G37*
G36*
X81415Y136016D02*
X75415Y125623D01*
X71085Y128123D01*
X77085Y138516D01*
X81415Y136016D01*
G37*
G36*
X56559Y148087D02*
X52455Y136811D01*
X47756Y138521D01*
X51861Y149797D01*
X56559Y148087D01*
G37*
G36*
X29985Y155659D02*
X27901Y143841D01*
X22977Y144709D01*
X25061Y156527D01*
X29985Y155659D01*
G37*
X0Y152501D02*
G54D13*
D03*
G36*
X-25061Y156527D02*
X-22978Y144709D01*
X-27902Y143841D01*
X-29986Y155659D01*
X-25061Y156527D01*
G37*
G36*
X-51861Y149797D02*
X-47757Y138521D01*
X-52455Y136811D01*
X-56560Y148087D01*
X-51861Y149797D01*
G37*
G36*
X-77085Y138516D02*
X-71085Y128123D01*
X-75415Y125623D01*
X-81415Y136016D01*
X-77085Y138516D01*
G37*
G36*
X-99967Y123026D02*
X-92254Y113833D01*
X-96084Y110619D01*
X-103797Y119812D01*
X-99967Y123026D01*
G37*
G36*
X-119811Y103798D02*
X-110619Y96084D01*
X-113833Y92254D01*
X-123025Y99967D01*
X-119811Y103798D01*
G37*
G36*
X-136015Y81416D02*
X-125623Y75416D01*
X-128123Y71086D01*
X-138515Y77086D01*
X-136015Y81416D01*
G37*
G36*
X-148086Y56560D02*
X-136810Y52456D01*
X-138520Y47757D01*
X-149797Y51862D01*
X-148086Y56560D01*
G37*
G36*
X-155658Y29986D02*
X-143840Y27902D01*
X-144709Y22978D01*
X-156526Y25062D01*
X-155658Y29986D01*
G37*
X-152500Y1D02*
G54D12*
D03*
G36*
X-156526Y-25060D02*
X-144709Y-22977D01*
X-143840Y-27901D01*
X-155658Y-29984D01*
X-156526Y-25060D01*
G37*
G36*
X-149797Y-51860D02*
X-138520Y-47756D01*
X-136810Y-52454D01*
X-148086Y-56559D01*
X-149797Y-51860D01*
G37*
G36*
X-138515Y-77084D02*
X-128123Y-71084D01*
X-125623Y-75414D01*
X-136015Y-81414D01*
X-138515Y-77084D01*
G37*
G36*
X-123025Y-99966D02*
X-113833Y-92253D01*
X-110619Y-96083D01*
X-119811Y-103796D01*
X-123025Y-99966D01*
G37*
G36*
X-103797Y-119810D02*
X-96084Y-110618D01*
X-92254Y-113832D01*
X-99967Y-123024D01*
X-103797Y-119810D01*
G37*
G36*
X-81415Y-136014D02*
X-75415Y-125622D01*
X-71085Y-128122D01*
X-77085Y-138514D01*
X-81415Y-136014D01*
G37*
G36*
X-56560Y-148086D02*
X-52455Y-136809D01*
X-47757Y-138519D01*
X-51861Y-149796D01*
X-56560Y-148086D01*
G37*
G36*
X-29986Y-155657D02*
X-27902Y-143840D01*
X-22978Y-144708D01*
X-25061Y-156525D01*
X-29986Y-155657D01*
G37*
X0Y-152499D02*
G54D13*
D03*
G36*
X25061Y-156525D02*
X22977Y-144708D01*
X27901Y-143840D01*
X29985Y-155657D01*
X25061Y-156525D01*
G37*
G36*
X51861Y-149796D02*
X47756Y-138519D01*
X52455Y-136809D01*
X56559Y-148086D01*
X51861Y-149796D01*
G37*
G36*
X77085Y-138514D02*
X71085Y-128122D01*
X75415Y-125622D01*
X81415Y-136014D01*
X77085Y-138514D01*
G37*
G36*
X99966Y-123024D02*
X92253Y-113832D01*
X96083Y-110618D01*
X103797Y-119810D01*
X99966Y-123024D01*
G37*
G36*
X119811Y-103796D02*
X110618Y-96083D01*
X113832Y-92253D01*
X123025Y-99966D01*
X119811Y-103796D01*
G37*
G36*
X136015Y-81414D02*
X125622Y-75414D01*
X128122Y-71084D01*
X138515Y-77084D01*
X136015Y-81414D01*
G37*
G36*
X148086Y-56559D02*
X136810Y-52454D01*
X138520Y-47756D01*
X149796Y-51860D01*
X148086Y-56559D01*
G37*
G36*
X155658Y-29984D02*
X143840Y-27901D01*
X144708Y-22977D01*
X156526Y-25060D01*
X155658Y-29984D01*
G37*
G54D10*
X140722Y8176D02*
X140722Y3732D01*
X141077Y2843D01*
X141788Y2398D01*
X142500Y2398D01*
X143211Y2843D01*
X143566Y3732D01*
X143566Y8176D01*
X143211Y9065D01*
X142500Y9509D01*
X141788Y9509D01*
X141077Y9065D01*
X140722Y8176D01*
G54D10*
X143612Y-3730D02*
X143256Y-2841D01*
X142545Y-2397D01*
X141834Y-2397D01*
X141123Y-2841D01*
X140767Y-3730D01*
X140767Y-4619D01*
X141123Y-5508D01*
X141834Y-5952D01*
X141123Y-6397D01*
X140767Y-7286D01*
X140767Y-8175D01*
X141123Y-9064D01*
X141834Y-9508D01*
X142545Y-9508D01*
X143256Y-9064D01*
X143612Y-8175D01*
G54D10*
X135434Y-3730D02*
X135790Y-2841D01*
X136501Y-2397D01*
X137212Y-2397D01*
X137923Y-2841D01*
X138279Y-3730D01*
X138279Y-5952D01*
X138279Y-6397D01*
X137212Y-5508D01*
X136501Y-5508D01*
X135790Y-5952D01*
X135434Y-6841D01*
X135434Y-8175D01*
X135790Y-9064D01*
X136501Y-9508D01*
X137212Y-9508D01*
X137923Y-9064D01*
X138279Y-8175D01*
X138279Y-5952D01*
G54D10*
X130101Y-3730D02*
X130101Y-8175D01*
X130457Y-9064D01*
X131168Y-9508D01*
X131879Y-9508D01*
X132590Y-9064D01*
X132946Y-8175D01*
X132946Y-3730D01*
X132590Y-2841D01*
X131879Y-2397D01*
X131168Y-2397D01*
X130457Y-2841D01*
X130101Y-3730D01*
G54D10*
X-130056Y889D02*
X-131834Y3556D01*
X-131834Y-3555D01*
G54D10*
X-136101Y1D02*
X-135390Y1D01*
X-134679Y445D01*
X-134323Y1334D01*
X-134323Y2223D01*
X-134679Y3112D01*
X-135390Y3556D01*
X-136101Y3556D01*
X-136812Y3112D01*
X-137167Y2223D01*
X-137167Y1334D01*
X-136812Y445D01*
X-136101Y1D01*
X-136812Y-444D01*
X-137167Y-1333D01*
X-137167Y-2222D01*
X-136812Y-3111D01*
X-136101Y-3555D01*
X-135390Y-3555D01*
X-134679Y-3111D01*
X-134323Y-2222D01*
X-134323Y-1333D01*
X-134679Y-444D01*
X-135390Y1D01*
G54D10*
X-142500Y2223D02*
X-142500Y-2222D01*
X-142145Y-3111D01*
X-141434Y-3555D01*
X-140723Y-3555D01*
X-140012Y-3111D01*
X-139656Y-2222D01*
X-139656Y2223D01*
X-140012Y3112D01*
X-140723Y3556D01*
X-141434Y3556D01*
X-142145Y3112D01*
X-142500Y2223D01*
X7704Y-18034D02*
G54D14*
D03*
X3386Y-23114D02*
G54D14*
D03*
X3512Y-22860D02*
G54D15*
D03*
X3386Y-22606D02*
G54D16*
D03*
X3512Y-22352D02*
G54D17*
D03*
X3386Y-22098D02*
G54D18*
D03*
X3386Y-21844D02*
G54D19*
D03*
X3386Y-21590D02*
G54D20*
D03*
X3386Y-21336D02*
G54D21*
D03*
X3386Y-21082D02*
G54D22*
D03*
X3258Y-20828D02*
G54D23*
D03*
X3258Y-20574D02*
G54D24*
D03*
X3258Y-20320D02*
G54D25*
D03*
X3132Y-20066D02*
G54D26*
D03*
X3004Y-19812D02*
G54D27*
D03*
X7196Y-19558D02*
G54D28*
D03*
X12276Y-15494D02*
G54D29*
D03*
X12276Y-15240D02*
G54D29*
D03*
X12276Y-14986D02*
G54D29*
D03*
X12276Y-14732D02*
G54D29*
D03*
X12276Y-14478D02*
G54D29*
D03*
X12276Y-14224D02*
G54D29*
D03*
X12276Y-13970D02*
G54D29*
D03*
X12276Y-13716D02*
G54D29*
D03*
X12276Y-13462D02*
G54D29*
D03*
X12276Y-13208D02*
G54D29*
D03*
X12276Y-12954D02*
G54D29*
D03*
X12276Y-12700D02*
G54D29*
D03*
X12276Y-12446D02*
G54D29*
D03*
X12276Y-12192D02*
G54D29*
D03*
X12276Y-11938D02*
G54D29*
D03*
X12276Y-11684D02*
G54D29*
D03*
X12276Y-11430D02*
G54D29*
D03*
X12276Y-11176D02*
G54D29*
D03*
X12276Y-10922D02*
G54D29*
D03*
X12276Y-10668D02*
G54D29*
D03*
X12276Y-10414D02*
G54D29*
D03*
X12276Y-10160D02*
G54D29*
D03*
X12276Y-9906D02*
G54D29*
D03*
X12276Y-9652D02*
G54D29*
D03*
X12276Y-9398D02*
G54D29*
D03*
X21166Y-17272D02*
G54D29*
D03*
X-18966Y-4826D02*
G54D29*
D03*
X-19728Y-3048D02*
G54D29*
D03*
X-27094Y-9906D02*
G54D29*
D03*
X-27094Y-10160D02*
G54D29*
D03*
X-48938Y-508D02*
G54D29*
D03*
X-48938Y-254D02*
G54D29*
D03*
X-17950Y15748D02*
G54D29*
D03*
X-24554Y21082D02*
G54D29*
D03*
X-50716Y-19558D02*
G54D29*
D03*
X7322Y-19304D02*
G54D30*
D03*
X7322Y-19050D02*
G54D30*
D03*
X3258Y-15494D02*
G54D31*
D03*
X3258Y-15240D02*
G54D31*
D03*
X3258Y-14986D02*
G54D31*
D03*
X3258Y-14732D02*
G54D31*
D03*
X3258Y-14478D02*
G54D31*
D03*
X3258Y-12192D02*
G54D31*
D03*
X3258Y-11938D02*
G54D31*
D03*
X3258Y-11684D02*
G54D31*
D03*
X3258Y-11430D02*
G54D31*
D03*
X3258Y-11176D02*
G54D31*
D03*
X3258Y-10922D02*
G54D31*
D03*
X3258Y-10668D02*
G54D31*
D03*
X12148Y-15748D02*
G54D31*
D03*
X21292Y-15748D02*
G54D31*
D03*
X21292Y-15494D02*
G54D31*
D03*
X21292Y-15240D02*
G54D31*
D03*
X21292Y-14986D02*
G54D31*
D03*
X21292Y-16002D02*
G54D31*
D03*
X21292Y-16256D02*
G54D31*
D03*
X21292Y-16510D02*
G54D31*
D03*
X21292Y-16764D02*
G54D31*
D03*
X21292Y-17018D02*
G54D31*
D03*
X21292Y-12446D02*
G54D31*
D03*
X21292Y-12192D02*
G54D31*
D03*
X21292Y-11938D02*
G54D31*
D03*
X21292Y-11684D02*
G54D31*
D03*
X21292Y-11430D02*
G54D31*
D03*
X21292Y-11176D02*
G54D31*
D03*
X21292Y-10922D02*
G54D31*
D03*
X21292Y-10668D02*
G54D31*
D03*
X45422Y-9906D02*
G54D31*
D03*
X45422Y-9652D02*
G54D31*
D03*
X45422Y-9398D02*
G54D31*
D03*
X56852Y-17780D02*
G54D31*
D03*
X-8934Y-3048D02*
G54D31*
D03*
X-19856Y-3302D02*
G54D31*
D03*
X-27222Y-9398D02*
G54D31*
D03*
X-27222Y-9652D02*
G54D31*
D03*
X-43224Y-9144D02*
G54D31*
D03*
X-49066Y0D02*
G54D31*
D03*
X-17824Y15494D02*
G54D31*
D03*
X-24682Y21336D02*
G54D31*
D03*
X-51098Y-19304D02*
G54D31*
D03*
X-51224Y-19050D02*
G54D32*
D03*
X-51478Y-18796D02*
G54D32*
D03*
X-51732Y-18542D02*
G54D32*
D03*
X-43096Y-8890D02*
G54D32*
D03*
X-27348Y-8890D02*
G54D32*
D03*
X-27348Y-8636D02*
G54D32*
D03*
X-27348Y-9144D02*
G54D32*
D03*
X-19728Y-3810D02*
G54D32*
D03*
X-19728Y-3556D02*
G54D32*
D03*
X3132Y-12446D02*
G54D32*
D03*
X3132Y-14224D02*
G54D32*
D03*
X3132Y-15748D02*
G54D32*
D03*
X12022Y-16002D02*
G54D32*
D03*
X21166Y-14732D02*
G54D32*
D03*
X21166Y-12700D02*
G54D32*
D03*
X45296Y-10414D02*
G54D32*
D03*
X45296Y-10160D02*
G54D32*
D03*
X56980Y-17526D02*
G54D32*
D03*
X-16680Y14478D02*
G54D32*
D03*
X-16934Y14732D02*
G54D32*
D03*
X-17188Y14986D02*
G54D32*
D03*
X-17442Y15240D02*
G54D32*
D03*
X-48938Y254D02*
G54D32*
D03*
X7450Y-18796D02*
G54D33*
D03*
X7576Y-18542D02*
G54D34*
D03*
X7576Y-18288D02*
G54D34*
D03*
X11894Y-16256D02*
G54D35*
D03*
X3004Y-16002D02*
G54D35*
D03*
X3004Y-12700D02*
G54D35*
D03*
X21038Y-12954D02*
G54D35*
D03*
X45168Y-11176D02*
G54D35*
D03*
X45168Y-10922D02*
G54D35*
D03*
X45168Y-10668D02*
G54D35*
D03*
X56090Y-14224D02*
G54D35*
D03*
X56852Y-16256D02*
G54D35*
D03*
X57106Y-17018D02*
G54D35*
D03*
X57106Y-17272D02*
G54D35*
D03*
X-9188Y-2794D02*
G54D35*
D03*
X-19602Y-4064D02*
G54D35*
D03*
X-19602Y-4318D02*
G54D35*
D03*
X-27476Y-8128D02*
G54D35*
D03*
X-27476Y-8382D02*
G54D35*
D03*
X-42970Y-6350D02*
G54D35*
D03*
X-42970Y-6096D02*
G54D35*
D03*
X-42970Y-5842D02*
G54D35*
D03*
X-24428Y5842D02*
G54D35*
D03*
X-16554Y14224D02*
G54D35*
D03*
X-52114Y-18288D02*
G54D35*
D03*
X-52368Y-18034D02*
G54D35*
D03*
X-28618Y-3810D02*
G54D36*
D03*
X-28618Y-3556D02*
G54D36*
D03*
X28786Y-12700D02*
G54D36*
D03*
X28786Y-15240D02*
G54D36*
D03*
X44026Y-16764D02*
G54D36*
D03*
X44026Y-17018D02*
G54D36*
D03*
X50122Y-17526D02*
G54D36*
D03*
X50122Y-17780D02*
G54D36*
D03*
X44280Y-16002D02*
G54D37*
D03*
X44280Y-15748D02*
G54D37*
D03*
X44280Y-15494D02*
G54D37*
D03*
X43518Y-17780D02*
G54D37*
D03*
X37930Y-17272D02*
G54D37*
D03*
X37930Y-17018D02*
G54D37*
D03*
X37930Y-16764D02*
G54D37*
D03*
X37930Y-16510D02*
G54D37*
D03*
X37930Y-16256D02*
G54D37*
D03*
X37930Y-16002D02*
G54D37*
D03*
X37930Y-15748D02*
G54D37*
D03*
X37930Y-15494D02*
G54D37*
D03*
X37930Y-15240D02*
G54D37*
D03*
X37930Y-14986D02*
G54D37*
D03*
X37930Y-14732D02*
G54D37*
D03*
X37930Y-14478D02*
G54D37*
D03*
X37930Y-14224D02*
G54D37*
D03*
X37930Y-13970D02*
G54D37*
D03*
X37930Y-13716D02*
G54D37*
D03*
X37930Y-13462D02*
G54D37*
D03*
X37930Y-13208D02*
G54D37*
D03*
X37930Y-12954D02*
G54D37*
D03*
X37930Y-12700D02*
G54D37*
D03*
X37930Y-12446D02*
G54D37*
D03*
X37930Y-12192D02*
G54D37*
D03*
X37930Y-11938D02*
G54D37*
D03*
X37930Y-11684D02*
G54D37*
D03*
X37930Y-11430D02*
G54D37*
D03*
X37930Y-11176D02*
G54D37*
D03*
X37930Y-10922D02*
G54D37*
D03*
X37930Y-10668D02*
G54D37*
D03*
X37930Y-10414D02*
G54D37*
D03*
X37930Y-10160D02*
G54D37*
D03*
X37930Y-9906D02*
G54D37*
D03*
X37930Y-9652D02*
G54D37*
D03*
X37930Y-9398D02*
G54D37*
D03*
X29040Y-13462D02*
G54D37*
D03*
X29040Y-14732D02*
G54D37*
D03*
X-9822Y-17272D02*
G54D37*
D03*
X-28364Y-4826D02*
G54D37*
D03*
X-28364Y-4572D02*
G54D37*
D03*
X-18966Y2286D02*
G54D37*
D03*
X-11092Y4572D02*
G54D37*
D03*
X-11092Y4826D02*
G54D37*
D03*
X-10838Y4064D02*
G54D37*
D03*
X-10838Y3810D02*
G54D37*
D03*
X-10838Y3556D02*
G54D37*
D03*
X-10584Y3048D02*
G54D37*
D03*
X-10584Y2794D02*
G54D37*
D03*
X-10584Y2540D02*
G54D37*
D03*
X-10584Y2286D02*
G54D37*
D03*
X-10330Y1778D02*
G54D37*
D03*
X-10330Y1524D02*
G54D37*
D03*
X-10330Y1270D02*
G54D37*
D03*
X-10330Y1016D02*
G54D37*
D03*
X-10330Y762D02*
G54D37*
D03*
X-10330Y508D02*
G54D37*
D03*
X-10076Y-254D02*
G54D37*
D03*
X-10076Y-508D02*
G54D37*
D03*
X-10076Y-762D02*
G54D37*
D03*
X-11346Y5588D02*
G54D37*
D03*
X-25062Y22098D02*
G54D37*
D03*
X-58336Y1270D02*
G54D37*
D03*
X-58336Y1016D02*
G54D37*
D03*
X-58590Y0D02*
G54D37*
D03*
X-58590Y-254D02*
G54D37*
D03*
X-58590Y-508D02*
G54D37*
D03*
X-58590Y-762D02*
G54D37*
D03*
X-58590Y-1016D02*
G54D37*
D03*
X-58590Y-1270D02*
G54D37*
D03*
X-58590Y-1524D02*
G54D37*
D03*
X-58590Y-1778D02*
G54D37*
D03*
X-58590Y-2032D02*
G54D37*
D03*
X-58590Y-2286D02*
G54D37*
D03*
X-58590Y-2540D02*
G54D37*
D03*
X-58590Y-2794D02*
G54D37*
D03*
X-58590Y-3048D02*
G54D37*
D03*
X-58590Y-3302D02*
G54D37*
D03*
X-58590Y-3556D02*
G54D37*
D03*
X-58336Y-4826D02*
G54D37*
D03*
X-58336Y-5080D02*
G54D37*
D03*
X-58336Y-5334D02*
G54D37*
D03*
X-58336Y-5588D02*
G54D37*
D03*
X-58336Y-5842D02*
G54D37*
D03*
X-58336Y-6096D02*
G54D37*
D03*
X-58082Y-6350D02*
G54D37*
D03*
X-58082Y-6604D02*
G54D37*
D03*
X-58082Y-6858D02*
G54D37*
D03*
X-58082Y-7112D02*
G54D37*
D03*
X-57828Y-7620D02*
G54D37*
D03*
X-57828Y-7874D02*
G54D37*
D03*
X-57828Y-8128D02*
G54D37*
D03*
X-57574Y-8636D02*
G54D37*
D03*
X-57574Y-8890D02*
G54D37*
D03*
X-56812Y-10922D02*
G54D38*
D03*
X-56558Y-11430D02*
G54D38*
D03*
X-56558Y-11684D02*
G54D38*
D03*
X-56304Y-11938D02*
G54D38*
D03*
X-56304Y-12192D02*
G54D38*
D03*
X-56050Y-12446D02*
G54D38*
D03*
X-56050Y-12700D02*
G54D38*
D03*
X-55796Y-12954D02*
G54D38*
D03*
X-55796Y-13208D02*
G54D38*
D03*
X-55542Y-13462D02*
G54D38*
D03*
X-28110Y-5842D02*
G54D38*
D03*
X-28110Y-5588D02*
G54D38*
D03*
X-9822Y-1524D02*
G54D38*
D03*
X-24808Y5080D02*
G54D38*
D03*
X-13124Y9652D02*
G54D38*
D03*
X-12870Y9144D02*
G54D38*
D03*
X-12616Y8890D02*
G54D38*
D03*
X-12616Y8636D02*
G54D38*
D03*
X-12362Y8382D02*
G54D38*
D03*
X-12362Y8128D02*
G54D38*
D03*
X-12108Y7620D02*
G54D38*
D03*
X29294Y-13970D02*
G54D38*
D03*
X37676Y-17780D02*
G54D38*
D03*
X44534Y-14478D02*
G54D38*
D03*
X44534Y-14224D02*
G54D38*
D03*
X-10076Y-17780D02*
G54D38*
D03*
X27388Y-17780D02*
G54D39*
D03*
X27642Y-17526D02*
G54D39*
D03*
X27896Y-17272D02*
G54D39*
D03*
X28150Y-17018D02*
G54D39*
D03*
X32214Y-17780D02*
G54D39*
D03*
X49994Y-16002D02*
G54D39*
D03*
X-29254Y-1016D02*
G54D39*
D03*
X-29254Y-762D02*
G54D39*
D03*
X-19982Y-2032D02*
G54D40*
D03*
X-19982Y-2286D02*
G54D40*
D03*
X-26840Y-10922D02*
G54D40*
D03*
X-26840Y-11176D02*
G54D40*
D03*
X-48684Y-1270D02*
G54D40*
D03*
X-48684Y-1016D02*
G54D40*
D03*
X20912Y-17780D02*
G54D40*
D03*
X32342Y-17526D02*
G54D41*
D03*
X50122Y-15748D02*
G54D41*
D03*
X50122Y-15494D02*
G54D41*
D03*
X9228Y-17780D02*
G54D41*
D03*
X-29380Y-508D02*
G54D41*
D03*
X-29380Y-254D02*
G54D41*
D03*
X-18204Y2794D02*
G54D41*
D03*
X-29508Y0D02*
G54D42*
D03*
X-35096Y7620D02*
G54D42*
D03*
X-50082Y-8890D02*
G54D42*
D03*
X-49828Y-9398D02*
G54D42*
D03*
X210Y-17780D02*
G54D42*
D03*
X9354Y-17526D02*
G54D42*
D03*
X32468Y-17272D02*
G54D42*
D03*
X49994Y-15240D02*
G54D42*
D03*
X-29254Y-17018D02*
G54D43*
D03*
X-29254Y-17526D02*
G54D43*
D03*
X-29254Y-17780D02*
G54D43*
D03*
X-42842Y-8636D02*
G54D44*
D03*
X-42842Y-6858D02*
G54D44*
D03*
X-42842Y-6604D02*
G54D44*
D03*
X-27602Y-7620D02*
G54D44*
D03*
X-27602Y-7874D02*
G54D44*
D03*
X-19474Y-4572D02*
G54D44*
D03*
X-9314Y-2540D02*
G54D44*
D03*
X20912Y-13208D02*
G54D44*
D03*
X11768Y-16510D02*
G54D44*
D03*
X2878Y-16256D02*
G54D44*
D03*
X45042Y-11938D02*
G54D44*
D03*
X45042Y-11684D02*
G54D44*
D03*
X45042Y-11430D02*
G54D44*
D03*
X54186Y-9398D02*
G54D44*
D03*
X54440Y-9906D02*
G54D44*
D03*
X54440Y-10160D02*
G54D44*
D03*
X54694Y-10414D02*
G54D44*
D03*
X54694Y-10668D02*
G54D44*
D03*
X54948Y-11176D02*
G54D44*
D03*
X54948Y-11430D02*
G54D44*
D03*
X55202Y-11684D02*
G54D44*
D03*
X55202Y-11938D02*
G54D44*
D03*
X55202Y-12192D02*
G54D44*
D03*
X55456Y-12446D02*
G54D44*
D03*
X55456Y-12700D02*
G54D44*
D03*
X55710Y-12954D02*
G54D44*
D03*
X55710Y-13208D02*
G54D44*
D03*
X55710Y-13462D02*
G54D44*
D03*
X55964Y-13716D02*
G54D44*
D03*
X55964Y-13970D02*
G54D44*
D03*
X56218Y-14478D02*
G54D44*
D03*
X56218Y-14732D02*
G54D44*
D03*
X56472Y-14986D02*
G54D44*
D03*
X56472Y-15240D02*
G54D44*
D03*
X56472Y-15494D02*
G54D44*
D03*
X56726Y-15748D02*
G54D44*
D03*
X56726Y-16002D02*
G54D44*
D03*
X56980Y-16510D02*
G54D44*
D03*
X56980Y-16764D02*
G54D44*
D03*
X-15664Y13462D02*
G54D44*
D03*
X-15918Y13716D02*
G54D44*
D03*
X-16172Y13970D02*
G54D44*
D03*
X-24808Y21590D02*
G54D44*
D03*
X-53002Y-17272D02*
G54D44*
D03*
X-52748Y-17526D02*
G54D44*
D03*
X-52494Y-17780D02*
G54D44*
D03*
X-58464Y-4572D02*
G54D45*
D03*
X-58464Y-4318D02*
G54D45*
D03*
X-58464Y-4064D02*
G54D45*
D03*
X-58464Y-3810D02*
G54D45*
D03*
X-58464Y254D02*
G54D45*
D03*
X-58464Y508D02*
G54D45*
D03*
X-58464Y762D02*
G54D45*
D03*
X-28492Y-4064D02*
G54D45*
D03*
X-28492Y-4318D02*
G54D45*
D03*
X-10204Y0D02*
G54D45*
D03*
X-10204Y254D02*
G54D45*
D03*
X-10458Y2032D02*
G54D45*
D03*
X-24936Y4826D02*
G54D45*
D03*
X-9696Y-12954D02*
G54D45*
D03*
X-9696Y-13208D02*
G54D45*
D03*
X-9696Y-13462D02*
G54D45*
D03*
X-9696Y-13716D02*
G54D45*
D03*
X-9696Y-13970D02*
G54D45*
D03*
X-9696Y-16764D02*
G54D45*
D03*
X-9696Y-17018D02*
G54D45*
D03*
X28912Y-14986D02*
G54D45*
D03*
X28912Y-13208D02*
G54D45*
D03*
X28912Y-12954D02*
G54D45*
D03*
X43644Y-17526D02*
G54D45*
D03*
X43898Y-17272D02*
G54D45*
D03*
X44152Y-16510D02*
G54D45*
D03*
X44152Y-16256D02*
G54D45*
D03*
X44406Y-15240D02*
G54D46*
D03*
X44406Y-14986D02*
G54D46*
D03*
X44406Y-14732D02*
G54D46*
D03*
X37802Y-17526D02*
G54D46*
D03*
X29166Y-14478D02*
G54D46*
D03*
X29166Y-14224D02*
G54D46*
D03*
X29166Y-13716D02*
G54D46*
D03*
X-9950Y-17526D02*
G54D46*
D03*
X-28238Y-5334D02*
G54D46*
D03*
X-28238Y-5080D02*
G54D46*
D03*
X-9950Y-1270D02*
G54D46*
D03*
X-9950Y-1016D02*
G54D46*
D03*
X-10712Y3302D02*
G54D46*
D03*
X-10966Y4318D02*
G54D46*
D03*
X-11220Y5080D02*
G54D46*
D03*
X-11220Y5334D02*
G54D46*
D03*
X-11474Y5842D02*
G54D46*
D03*
X-11474Y6096D02*
G54D46*
D03*
X-11728Y6350D02*
G54D46*
D03*
X-11728Y6604D02*
G54D46*
D03*
X-11728Y6858D02*
G54D46*
D03*
X-11982Y7112D02*
G54D46*
D03*
X-11982Y7366D02*
G54D46*
D03*
X-12236Y7874D02*
G54D46*
D03*
X-49574Y-5842D02*
G54D46*
D03*
X-57702Y-8382D02*
G54D46*
D03*
X-57448Y-9144D02*
G54D46*
D03*
X-57448Y-9398D02*
G54D46*
D03*
X-57194Y-9652D02*
G54D46*
D03*
X-57194Y-9906D02*
G54D46*
D03*
X-57194Y-10160D02*
G54D46*
D03*
X-56940Y-10414D02*
G54D46*
D03*
X-56940Y-10668D02*
G54D46*
D03*
X-56686Y-11176D02*
G54D46*
D03*
X-57956Y-7366D02*
G54D46*
D03*
X-43478Y-9398D02*
G54D47*
D03*
X-26968Y-10414D02*
G54D47*
D03*
X-26968Y-10668D02*
G54D47*
D03*
X-19856Y-2794D02*
G54D47*
D03*
X-19856Y-2540D02*
G54D47*
D03*
X-48812Y-762D02*
G54D47*
D03*
X21038Y-17526D02*
G54D47*
D03*
X32596Y-17018D02*
G54D48*
D03*
X27770Y-12192D02*
G54D48*
D03*
X9482Y-17272D02*
G54D48*
D03*
X338Y-17526D02*
G54D48*
D03*
X-35222Y-11176D02*
G54D48*
D03*
X-35222Y-10922D02*
G54D48*
D03*
X-35222Y-10668D02*
G54D48*
D03*
X-35222Y-10414D02*
G54D48*
D03*
X-35222Y-10160D02*
G54D48*
D03*
X-35222Y-9906D02*
G54D48*
D03*
X-35222Y-9652D02*
G54D48*
D03*
X-35222Y-9398D02*
G54D48*
D03*
X-35222Y-9144D02*
G54D48*
D03*
X-35222Y-8890D02*
G54D48*
D03*
X-35222Y-8636D02*
G54D48*
D03*
X-35222Y-8382D02*
G54D48*
D03*
X-35222Y-8128D02*
G54D48*
D03*
X-35222Y-7874D02*
G54D48*
D03*
X-35222Y-7620D02*
G54D48*
D03*
X-35222Y-7366D02*
G54D48*
D03*
X-35222Y-7112D02*
G54D48*
D03*
X-35222Y-6858D02*
G54D48*
D03*
X-35222Y-6604D02*
G54D48*
D03*
X-35222Y-6350D02*
G54D48*
D03*
X-35222Y-6096D02*
G54D48*
D03*
X-35222Y-5842D02*
G54D48*
D03*
X-35222Y-5588D02*
G54D48*
D03*
X-35222Y-5334D02*
G54D48*
D03*
X-35222Y-5080D02*
G54D48*
D03*
X-35222Y-4826D02*
G54D48*
D03*
X-35222Y-4572D02*
G54D48*
D03*
X-35222Y-4318D02*
G54D48*
D03*
X-35222Y-4064D02*
G54D48*
D03*
X-35222Y-3810D02*
G54D48*
D03*
X-35222Y-3556D02*
G54D48*
D03*
X-35222Y-3302D02*
G54D48*
D03*
X-35222Y-3048D02*
G54D48*
D03*
X-35222Y-2794D02*
G54D48*
D03*
X-35222Y-2540D02*
G54D48*
D03*
X-35222Y-2286D02*
G54D48*
D03*
X-35222Y-2032D02*
G54D48*
D03*
X-35222Y-1778D02*
G54D48*
D03*
X-35222Y-1524D02*
G54D48*
D03*
X-35222Y-1270D02*
G54D48*
D03*
X-35222Y-1016D02*
G54D48*
D03*
X-35222Y-762D02*
G54D48*
D03*
X-35222Y-508D02*
G54D48*
D03*
X-35222Y-254D02*
G54D48*
D03*
X-35222Y0D02*
G54D48*
D03*
X-35222Y254D02*
G54D48*
D03*
X-35222Y508D02*
G54D48*
D03*
X-35222Y762D02*
G54D48*
D03*
X-35222Y1016D02*
G54D48*
D03*
X-35222Y1270D02*
G54D48*
D03*
X-35222Y1524D02*
G54D48*
D03*
X-35222Y1778D02*
G54D48*
D03*
X-35222Y2032D02*
G54D48*
D03*
X-35222Y2286D02*
G54D48*
D03*
X-35222Y2540D02*
G54D48*
D03*
X-35222Y2794D02*
G54D48*
D03*
X-35222Y3048D02*
G54D48*
D03*
X-35222Y3302D02*
G54D48*
D03*
X-35222Y3556D02*
G54D48*
D03*
X-35222Y3810D02*
G54D48*
D03*
X-35222Y4064D02*
G54D48*
D03*
X-35222Y4318D02*
G54D48*
D03*
X-35222Y4572D02*
G54D48*
D03*
X-35222Y4826D02*
G54D48*
D03*
X-35222Y5080D02*
G54D48*
D03*
X-35222Y5334D02*
G54D48*
D03*
X-35222Y5588D02*
G54D48*
D03*
X-35222Y5842D02*
G54D48*
D03*
X-35222Y6096D02*
G54D48*
D03*
X-35222Y6350D02*
G54D48*
D03*
X-35222Y6604D02*
G54D48*
D03*
X-35222Y6858D02*
G54D48*
D03*
X-35222Y7112D02*
G54D48*
D03*
X-35222Y7366D02*
G54D48*
D03*
X-29380Y254D02*
G54D48*
D03*
X-18458Y4572D02*
G54D48*
D03*
X-18458Y4826D02*
G54D48*
D03*
X-18712Y5080D02*
G54D48*
D03*
X-18712Y5334D02*
G54D48*
D03*
X-18966Y5588D02*
G54D48*
D03*
X-18966Y5842D02*
G54D48*
D03*
X-18204Y4064D02*
G54D48*
D03*
X-18204Y3810D02*
G54D48*
D03*
X-17950Y3302D02*
G54D48*
D03*
X-17950Y3048D02*
G54D48*
D03*
X-49700Y-9652D02*
G54D48*
D03*
X-49954Y-9144D02*
G54D48*
D03*
X-50208Y-8636D02*
G54D48*
D03*
X-50208Y-8382D02*
G54D48*
D03*
X-50462Y-8128D02*
G54D48*
D03*
X-50462Y-7874D02*
G54D48*
D03*
X-50716Y-7366D02*
G54D48*
D03*
X-50716Y-7112D02*
G54D48*
D03*
X-50970Y-6604D02*
G54D48*
D03*
X-25316Y22860D02*
G54D48*
D03*
X50122Y-14986D02*
G54D48*
D03*
X49994Y-17272D02*
G54D49*
D03*
X28658Y-15748D02*
G54D49*
D03*
X28658Y-15494D02*
G54D49*
D03*
X28658Y-12446D02*
G54D49*
D03*
X-18332Y-9652D02*
G54D49*
D03*
X-18332Y-9398D02*
G54D49*
D03*
X-28746Y-3302D02*
G54D49*
D03*
X-28746Y-3048D02*
G54D49*
D03*
X-28746Y-2794D02*
G54D49*
D03*
X-25190Y4572D02*
G54D49*
D03*
X-50082Y-6096D02*
G54D49*
D03*
X-25190Y22352D02*
G54D49*
D03*
X-18332Y4318D02*
G54D50*
D03*
X-18078Y3556D02*
G54D50*
D03*
X-8426Y-9398D02*
G54D50*
D03*
X-8426Y-9652D02*
G54D50*
D03*
X-8426Y-9906D02*
G54D50*
D03*
X-8426Y-10160D02*
G54D50*
D03*
X-8426Y-10414D02*
G54D50*
D03*
X718Y-9398D02*
G54D50*
D03*
X9608Y-16764D02*
G54D50*
D03*
X9608Y-17018D02*
G54D50*
D03*
X464Y-17272D02*
G54D50*
D03*
X18752Y-9398D02*
G54D50*
D03*
X27642Y-9398D02*
G54D50*
D03*
X27642Y-9652D02*
G54D50*
D03*
X27642Y-9906D02*
G54D50*
D03*
X27642Y-10160D02*
G54D50*
D03*
X27642Y-10414D02*
G54D50*
D03*
X27642Y-10668D02*
G54D50*
D03*
X27642Y-10922D02*
G54D50*
D03*
X27642Y-11176D02*
G54D50*
D03*
X27642Y-11430D02*
G54D50*
D03*
X27642Y-11684D02*
G54D50*
D03*
X27642Y-11938D02*
G54D50*
D03*
X32722Y-16510D02*
G54D50*
D03*
X32722Y-16764D02*
G54D50*
D03*
X49994Y-14732D02*
G54D50*
D03*
X-50590Y-7620D02*
G54D50*
D03*
X-50844Y-6858D02*
G54D50*
D03*
X-29126Y-17272D02*
G54D51*
D03*
X-18204Y-10160D02*
G54D52*
D03*
X-18204Y-9906D02*
G54D52*
D03*
X-28872Y-2540D02*
G54D52*
D03*
X-28872Y-2286D02*
G54D52*
D03*
X-24554Y3048D02*
G54D52*
D03*
X-24808Y3556D02*
G54D52*
D03*
X-25062Y4064D02*
G54D52*
D03*
X-18458Y2540D02*
G54D52*
D03*
X28532Y-16002D02*
G54D52*
D03*
X50122Y-17018D02*
G54D52*
D03*
X50122Y-14478D02*
G54D53*
D03*
X50122Y-14224D02*
G54D53*
D03*
X32850Y-16256D02*
G54D53*
D03*
X18626Y-14478D02*
G54D53*
D03*
X18626Y-14224D02*
G54D53*
D03*
X18626Y-13970D02*
G54D53*
D03*
X18626Y-13716D02*
G54D53*
D03*
X18626Y-13462D02*
G54D53*
D03*
X18626Y-10414D02*
G54D53*
D03*
X18626Y-10160D02*
G54D53*
D03*
X18626Y-9906D02*
G54D53*
D03*
X18626Y-9652D02*
G54D53*
D03*
X592Y-9652D02*
G54D53*
D03*
X592Y-9906D02*
G54D53*
D03*
X592Y-10160D02*
G54D53*
D03*
X592Y-10414D02*
G54D53*
D03*
X592Y-12954D02*
G54D53*
D03*
X592Y-13208D02*
G54D53*
D03*
X592Y-13462D02*
G54D53*
D03*
X592Y-13716D02*
G54D53*
D03*
X592Y-13970D02*
G54D53*
D03*
X592Y-16764D02*
G54D53*
D03*
X592Y-17018D02*
G54D53*
D03*
X2750Y-16510D02*
G54D54*
D03*
X-16808Y-10668D02*
G54D54*
D03*
X-27730Y-7366D02*
G54D54*
D03*
X-27730Y-7112D02*
G54D54*
D03*
X-42716Y-7112D02*
G54D54*
D03*
X-42716Y-7366D02*
G54D54*
D03*
X-54146Y-15748D02*
G54D54*
D03*
X-53638Y-16510D02*
G54D54*
D03*
X-53384Y-16764D02*
G54D54*
D03*
X-53130Y-17018D02*
G54D54*
D03*
X-24428Y5588D02*
G54D54*
D03*
X-14776Y12192D02*
G54D54*
D03*
X-15030Y12446D02*
G54D54*
D03*
X-15030Y12700D02*
G54D54*
D03*
X-15284Y12954D02*
G54D54*
D03*
X-15538Y13208D02*
G54D54*
D03*
X44914Y-12192D02*
G54D54*
D03*
X44914Y-12446D02*
G54D54*
D03*
X54312Y-9652D02*
G54D54*
D03*
X54820Y-10922D02*
G54D54*
D03*
X49994Y-16764D02*
G54D55*
D03*
X28404Y-16256D02*
G54D55*
D03*
X-18078Y-10414D02*
G54D55*
D03*
X-29000Y-2032D02*
G54D55*
D03*
X-29000Y-1778D02*
G54D55*
D03*
X-24174Y2286D02*
G54D55*
D03*
X-24428Y2540D02*
G54D55*
D03*
X-24428Y2794D02*
G54D55*
D03*
X-24682Y3302D02*
G54D55*
D03*
X-24936Y3810D02*
G54D55*
D03*
X-25190Y4318D02*
G54D55*
D03*
X-29126Y-1270D02*
G54D56*
D03*
X-29126Y-1524D02*
G54D56*
D03*
X-50462Y-6350D02*
G54D56*
D03*
X-25316Y22606D02*
G54D56*
D03*
X28278Y-16510D02*
G54D56*
D03*
X28278Y-16764D02*
G54D56*
D03*
X50122Y-16510D02*
G54D56*
D03*
X50122Y-16256D02*
G54D56*
D03*
X-29380Y-16764D02*
G54D57*
D03*
X-7536Y-16510D02*
G54D58*
D03*
X-20744Y508D02*
G54D58*
D03*
X-20744Y762D02*
G54D58*
D03*
X-28110Y14478D02*
G54D58*
D03*
X-27602Y15240D02*
G54D58*
D03*
X-39794Y13208D02*
G54D59*
D03*
X-29634Y-16510D02*
G54D59*
D03*
X-7410Y-16256D02*
G54D60*
D03*
X-7410Y-12700D02*
G54D60*
D03*
X-20872Y1016D02*
G54D60*
D03*
X-20872Y1270D02*
G54D60*
D03*
X-21126Y1524D02*
G54D60*
D03*
X-21126Y1778D02*
G54D60*
D03*
X-28492Y13970D02*
G54D60*
D03*
X-28238Y14224D02*
G54D60*
D03*
X-27984Y14732D02*
G54D60*
D03*
X-27730Y14986D02*
G54D60*
D03*
X-27476Y15494D02*
G54D60*
D03*
X-27222Y15748D02*
G54D60*
D03*
X-24174Y20320D02*
G54D60*
D03*
X-29762Y-16256D02*
G54D61*
D03*
X-16680Y-11430D02*
G54D62*
D03*
X-16680Y-11176D02*
G54D62*
D03*
X-16680Y-10922D02*
G54D62*
D03*
X-27856Y-6858D02*
G54D62*
D03*
X-27856Y-6604D02*
G54D62*
D03*
X-42588Y-7620D02*
G54D62*
D03*
X-42588Y-7874D02*
G54D62*
D03*
X-42588Y-8382D02*
G54D62*
D03*
X-54526Y-15240D02*
G54D62*
D03*
X-54272Y-15494D02*
G54D62*
D03*
X-54018Y-16002D02*
G54D62*
D03*
X-53764Y-16256D02*
G54D62*
D03*
X-9568Y-2286D02*
G54D62*
D03*
X-13886Y10922D02*
G54D62*
D03*
X-14140Y11430D02*
G54D62*
D03*
X-14394Y11684D02*
G54D62*
D03*
X-14648Y11938D02*
G54D62*
D03*
X44788Y-12700D02*
G54D62*
D03*
X44788Y-12954D02*
G54D62*
D03*
X44788Y-13208D02*
G54D62*
D03*
X49994Y-13970D02*
G54D63*
D03*
X32976Y-16002D02*
G54D63*
D03*
X-7282Y-16002D02*
G54D64*
D03*
X-7282Y-12446D02*
G54D64*
D03*
X-21252Y2032D02*
G54D64*
D03*
X-29888Y-16002D02*
G54D65*
D03*
X33104Y-15748D02*
G54D66*
D03*
X33104Y-15494D02*
G54D66*
D03*
X50122Y-13716D02*
G54D66*
D03*
X50122Y-13462D02*
G54D66*
D03*
X-7156Y-14224D02*
G54D67*
D03*
X-7156Y-15748D02*
G54D67*
D03*
X-7156Y-12192D02*
G54D67*
D03*
X-7156Y-10668D02*
G54D67*
D03*
X-23412Y7112D02*
G54D67*
D03*
X-28746Y13716D02*
G54D67*
D03*
X-54400Y7366D02*
G54D67*
D03*
X-39922Y12954D02*
G54D68*
D03*
X-30016Y-15748D02*
G54D68*
D03*
X-7028Y-15494D02*
G54D69*
D03*
X-7028Y-15240D02*
G54D69*
D03*
X-7028Y-14986D02*
G54D69*
D03*
X-7028Y-14732D02*
G54D69*
D03*
X-7028Y-14478D02*
G54D69*
D03*
X-7028Y-11938D02*
G54D69*
D03*
X-7028Y-11684D02*
G54D69*
D03*
X-7028Y-11430D02*
G54D69*
D03*
X-7028Y-11176D02*
G54D69*
D03*
X-7028Y-10922D02*
G54D69*
D03*
X-22776Y6096D02*
G54D69*
D03*
X-23030Y6350D02*
G54D69*
D03*
X-23030Y6604D02*
G54D69*
D03*
X-23284Y6858D02*
G54D69*
D03*
X-23538Y7366D02*
G54D69*
D03*
X-23792Y7620D02*
G54D69*
D03*
X-24046Y20066D02*
G54D69*
D03*
X-30270Y-15494D02*
G54D70*
D03*
X33230Y-15240D02*
G54D71*
D03*
X49994Y-13208D02*
G54D71*
D03*
X-30396Y-15240D02*
G54D72*
D03*
X-39794Y12700D02*
G54D72*
D03*
X33358Y-14986D02*
G54D73*
D03*
X50122Y-12954D02*
G54D73*
D03*
X50122Y-12700D02*
G54D73*
D03*
X-30524Y-14986D02*
G54D74*
D03*
X-42462Y-8128D02*
G54D75*
D03*
X-54908Y-14478D02*
G54D75*
D03*
X-54908Y-14732D02*
G54D75*
D03*
X-54654Y-14986D02*
G54D75*
D03*
X-55162Y-14224D02*
G54D75*
D03*
X-55416Y-13970D02*
G54D75*
D03*
X-55416Y-13716D02*
G54D75*
D03*
X-27984Y-6350D02*
G54D75*
D03*
X-27984Y-6096D02*
G54D75*
D03*
X-9696Y-2032D02*
G54D75*
D03*
X-9696Y-1778D02*
G54D75*
D03*
X-24682Y5334D02*
G54D75*
D03*
X-13506Y10160D02*
G54D75*
D03*
X-13506Y10414D02*
G54D75*
D03*
X-13760Y10668D02*
G54D75*
D03*
X-14014Y11176D02*
G54D75*
D03*
X-13252Y9906D02*
G54D75*
D03*
X-12998Y9398D02*
G54D75*
D03*
X-24936Y21844D02*
G54D75*
D03*
X44660Y-13462D02*
G54D75*
D03*
X44660Y-13716D02*
G54D75*
D03*
X44660Y-13970D02*
G54D75*
D03*
X49994Y-12446D02*
G54D76*
D03*
X33484Y-14478D02*
G54D76*
D03*
X33484Y-14732D02*
G54D76*
D03*
X-30650Y-14732D02*
G54D77*
D03*
X-39794Y12446D02*
G54D77*
D03*
X-30778Y-14224D02*
G54D78*
D03*
X-30778Y-14478D02*
G54D78*
D03*
X-39794Y-2286D02*
G54D79*
D03*
X-39794Y-2032D02*
G54D79*
D03*
X-40048Y4826D02*
G54D79*
D03*
X-25316Y23114D02*
G54D79*
D03*
X33612Y-14224D02*
G54D79*
D03*
G36*
X33738Y-14097D02*
X33484Y-14097D01*
X33484Y-13843D01*
X33738Y-13843D01*
X33738Y-14097D01*
G37*
G36*
X50248Y-12319D02*
X49994Y-12319D01*
X49994Y-12065D01*
X50248Y-12065D01*
X50248Y-12319D01*
G37*
X-30904Y-13970D02*
G54D80*
D03*
X-39794Y12192D02*
G54D80*
D03*
X-31032Y-13716D02*
G54D81*
D03*
X-31158Y-13462D02*
G54D82*
D03*
X-39794Y11938D02*
G54D82*
D03*
X-39668Y11684D02*
G54D83*
D03*
X-31286Y-12954D02*
G54D83*
D03*
X-31286Y-13208D02*
G54D83*
D03*
X-31412Y-12700D02*
G54D84*
D03*
X-31540Y-12446D02*
G54D85*
D03*
X-39668Y11430D02*
G54D85*
D03*
X-39540Y11176D02*
G54D86*
D03*
X-31666Y-11938D02*
G54D86*
D03*
X-31666Y-12192D02*
G54D86*
D03*
X-31794Y-11684D02*
G54D87*
D03*
X-26714Y-11430D02*
G54D88*
D03*
X-43732Y-9652D02*
G54D88*
D03*
X-48558Y-1778D02*
G54D88*
D03*
X-48558Y-1524D02*
G54D88*
D03*
X-20110Y-1524D02*
G54D88*
D03*
X-20110Y-1778D02*
G54D88*
D03*
X-8426Y-3302D02*
G54D88*
D03*
X-24428Y20828D02*
G54D88*
D03*
X-41826Y-11430D02*
G54D89*
D03*
X-44874Y-11176D02*
G54D90*
D03*
X-54272Y6604D02*
G54D90*
D03*
X-54400Y6350D02*
G54D91*
D03*
X-23920Y19558D02*
G54D91*
D03*
X-45002Y-10668D02*
G54D91*
D03*
X-45002Y-10922D02*
G54D91*
D03*
X-45128Y-10414D02*
G54D92*
D03*
X-45128Y-10160D02*
G54D92*
D03*
X-54272Y5842D02*
G54D92*
D03*
X-54272Y6096D02*
G54D92*
D03*
X-45256Y-9906D02*
G54D93*
D03*
X16848Y-5842D02*
G54D94*
D03*
X17102Y-6350D02*
G54D94*
D03*
X17102Y-6604D02*
G54D94*
D03*
X17356Y-6858D02*
G54D94*
D03*
X17610Y-7366D02*
G54D94*
D03*
X17610Y-7620D02*
G54D94*
D03*
X17864Y-7874D02*
G54D94*
D03*
X17864Y-8128D02*
G54D94*
D03*
X18118Y-8382D02*
G54D94*
D03*
X18118Y-8636D02*
G54D94*
D03*
X18372Y-9144D02*
G54D94*
D03*
X18244Y-8890D02*
G54D95*
D03*
X16974Y-6096D02*
G54D95*
D03*
X16720Y-5588D02*
G54D95*
D03*
X16466Y-5334D02*
G54D95*
D03*
X17482Y-7112D02*
G54D96*
D03*
X-45890Y-5588D02*
G54D97*
D03*
X-46144Y508D02*
G54D97*
D03*
X-46018Y762D02*
G54D98*
D03*
X-46018Y-3810D02*
G54D98*
D03*
X-46018Y-4064D02*
G54D98*
D03*
X-46018Y-4318D02*
G54D98*
D03*
X-46018Y-4572D02*
G54D98*
D03*
X-46018Y-4826D02*
G54D98*
D03*
X-46018Y-5080D02*
G54D98*
D03*
X-46018Y-5334D02*
G54D98*
D03*
X-23666Y18542D02*
G54D98*
D03*
X21166Y-5080D02*
G54D99*
D03*
X-18078Y-5080D02*
G54D100*
D03*
X-20364Y-762D02*
G54D100*
D03*
X-20618Y0D02*
G54D100*
D03*
X-20618Y254D02*
G54D100*
D03*
X-24174Y20574D02*
G54D100*
D03*
X21038Y-4826D02*
G54D101*
D03*
X20784Y-4572D02*
G54D102*
D03*
X20658Y-4318D02*
G54D103*
D03*
X20530Y-4064D02*
G54D104*
D03*
X20276Y-3810D02*
G54D105*
D03*
X19896Y-3556D02*
G54D106*
D03*
X-46144Y-3556D02*
G54D107*
D03*
X-46144Y-3302D02*
G54D107*
D03*
X-46144Y-3048D02*
G54D107*
D03*
X-46144Y-2794D02*
G54D107*
D03*
X-46144Y-2540D02*
G54D107*
D03*
X-48430Y-2286D02*
G54D108*
D03*
X-48430Y-2032D02*
G54D108*
D03*
X-20490Y-508D02*
G54D108*
D03*
X-20490Y-254D02*
G54D108*
D03*
X-20236Y-1016D02*
G54D108*
D03*
X-20236Y-1270D02*
G54D108*
D03*
X-46272Y1016D02*
G54D109*
D03*
X-23412Y18288D02*
G54D109*
D03*
X-23284Y17526D02*
G54D110*
D03*
X-46906Y1270D02*
G54D110*
D03*
X-50208Y1524D02*
G54D111*
D03*
X-50208Y1778D02*
G54D111*
D03*
X-50208Y2032D02*
G54D111*
D03*
X-50082Y2286D02*
G54D112*
D03*
X-50082Y2540D02*
G54D112*
D03*
X-50082Y2794D02*
G54D112*
D03*
X-50082Y3048D02*
G54D112*
D03*
X-50082Y3302D02*
G54D112*
D03*
X-50082Y3556D02*
G54D112*
D03*
X-49954Y3810D02*
G54D113*
D03*
X-49954Y4064D02*
G54D113*
D03*
X-49954Y4318D02*
G54D113*
D03*
X-49954Y4572D02*
G54D113*
D03*
X-54018Y4826D02*
G54D114*
D03*
X-54146Y5080D02*
G54D115*
D03*
X-54146Y5334D02*
G54D115*
D03*
X-23666Y19050D02*
G54D115*
D03*
X-23792Y19304D02*
G54D116*
D03*
X-54272Y5588D02*
G54D116*
D03*
X-54400Y6858D02*
G54D117*
D03*
X-54400Y7112D02*
G54D117*
D03*
X-54146Y7620D02*
G54D117*
D03*
X-23920Y19812D02*
G54D117*
D03*
X-39032Y7874D02*
G54D118*
D03*
X-39032Y8128D02*
G54D119*
D03*
X-39160Y8382D02*
G54D120*
D03*
X-39032Y8636D02*
G54D121*
D03*
X-39160Y8890D02*
G54D122*
D03*
X-39160Y9144D02*
G54D123*
D03*
X-39286Y9398D02*
G54D124*
D03*
X-39160Y9652D02*
G54D125*
D03*
X-39286Y9906D02*
G54D126*
D03*
X-39414Y10160D02*
G54D127*
D03*
X-39414Y10414D02*
G54D128*
D03*
X-39414Y10668D02*
G54D129*
D03*
X-39540Y10922D02*
G54D130*
D03*
X-39414Y13462D02*
G54D131*
D03*
X-23030Y16002D02*
G54D132*
D03*
X-23158Y16256D02*
G54D133*
D03*
X-23158Y16510D02*
G54D134*
D03*
X-23158Y16764D02*
G54D135*
D03*
X-23284Y17018D02*
G54D136*
D03*
X-23284Y17272D02*
G54D137*
D03*
X-23412Y17780D02*
G54D138*
D03*
X-23412Y18034D02*
G54D139*
D03*
X-23666Y18796D02*
G54D140*
D03*
G54D141*
X22589Y106363D02*
X22589Y115252D01*
X20367Y109696D01*
X18145Y115252D01*
X18145Y106363D01*
G54D141*
X15034Y106363D02*
X12812Y115252D01*
X10590Y106363D01*
G54D141*
X14145Y109696D02*
X11478Y109696D01*
G54D141*
X7479Y115252D02*
X3923Y115252D01*
X4368Y114141D01*
X5257Y112474D01*
X6146Y110252D01*
X6590Y108585D01*
X6590Y106363D01*
G54D141*
X-2744Y113585D02*
X-2744Y108030D01*
X-2299Y106919D01*
X-1410Y106363D01*
X-521Y106363D01*
X368Y106919D01*
X812Y108030D01*
X812Y113585D01*
X368Y114696D01*
X-521Y115252D01*
X-1410Y115252D01*
X-2299Y114696D01*
X-2744Y113585D01*
G54D141*
X-9411Y113585D02*
X-9411Y108030D01*
X-8966Y106919D01*
X-8077Y106363D01*
X-7188Y106363D01*
X-6299Y106919D01*
X-5855Y108030D01*
X-5855Y113585D01*
X-6299Y114696D01*
X-7188Y115252D01*
X-8077Y115252D01*
X-8966Y114696D01*
X-9411Y113585D01*
G54D141*
X-14300Y110807D02*
X-16078Y110807D01*
X-16078Y108030D01*
X-15633Y106919D01*
X-14744Y106363D01*
X-13855Y106363D01*
X-12966Y106919D01*
X-12522Y108030D01*
X-12522Y113585D01*
X-12966Y114696D01*
X-13855Y115252D01*
X-14744Y115252D01*
X-15633Y114696D01*
X-16078Y113585D01*
G54D141*
X-20967Y108030D02*
X-23189Y106363D01*
G54D141*
X-22745Y113585D02*
X-22745Y108030D01*
X-22300Y106919D01*
X-21411Y106363D01*
X-20522Y106363D01*
X-19633Y106919D01*
X-19189Y108030D01*
X-19189Y113585D01*
X-19633Y114696D01*
X-20522Y115252D01*
X-21411Y115252D01*
X-22300Y114696D01*
X-22745Y113585D01*
G54D141*
X26369Y92076D02*
X29925Y92076D01*
X29925Y92631D01*
X29481Y93742D01*
X26814Y97076D01*
X26369Y98187D01*
X26369Y99298D01*
X26814Y100409D01*
X27703Y100964D01*
X28592Y100964D01*
X29481Y100409D01*
X29925Y99298D01*
G54D141*
X19702Y99298D02*
X19702Y93742D01*
X20147Y92631D01*
X21036Y92076D01*
X21925Y92076D01*
X22814Y92631D01*
X23258Y93742D01*
X23258Y99298D01*
X22814Y100409D01*
X21925Y100964D01*
X21036Y100964D01*
X20147Y100409D01*
X19702Y99298D01*
G54D141*
X16591Y97631D02*
X14369Y100964D01*
X14369Y92076D01*
G54D141*
X11258Y93742D02*
X10814Y92631D01*
X9925Y92076D01*
X9036Y92076D01*
X8147Y92631D01*
X7702Y93742D01*
X7702Y96520D01*
X7702Y97076D01*
X9036Y95964D01*
X9925Y95964D01*
X10814Y96520D01*
X11258Y97631D01*
X11258Y99298D01*
X10814Y100409D01*
X9925Y100964D01*
X9036Y100964D01*
X8147Y100409D01*
X7702Y99298D01*
X7702Y96520D01*
G54D141*
X1035Y99298D02*
X1035Y93742D01*
X1480Y92631D01*
X2369Y92076D01*
X3258Y92076D01*
X4147Y92631D01*
X4591Y93742D01*
X4591Y99298D01*
X4147Y100409D01*
X3258Y100964D01*
X2369Y100964D01*
X1480Y100409D01*
X1035Y99298D01*
G54D141*
X-5632Y100964D02*
X-2076Y100964D01*
X-2076Y97076D01*
X-2520Y97076D01*
X-3409Y97631D01*
X-4298Y97631D01*
X-5187Y97076D01*
X-5632Y95964D01*
X-5632Y93742D01*
X-5187Y92631D01*
X-4298Y92076D01*
X-3409Y92076D01*
X-2520Y92631D01*
X-2076Y93742D01*
G54D141*
X-8743Y97631D02*
X-10965Y100964D01*
X-10965Y92076D01*
G54D141*
X-14076Y97631D02*
X-16298Y100964D01*
X-16298Y92076D01*
G54D141*
X-19409Y92076D02*
X-19409Y100964D01*
X-21631Y100964D01*
X-22520Y100409D01*
X-22965Y99298D01*
X-22965Y93742D01*
X-22520Y92631D01*
X-21631Y92076D01*
X-19409Y92076D01*
G54D141*
X-26076Y100964D02*
X-26076Y92076D01*
X-28298Y97631D01*
X-30520Y92076D01*
X-30520Y100964D01*
G54D10*
X52752Y7112D02*
X50974Y0D01*
X49196Y7112D01*
G54D10*
X44573Y445D02*
X45142Y0D01*
X45853Y0D01*
X46564Y445D01*
X46706Y1334D01*
X46706Y2845D01*
X46351Y3734D01*
X45640Y4000D01*
X44929Y3734D01*
X44573Y3112D01*
X44573Y2223D01*
X46706Y2223D01*
G54D10*
X42084Y0D02*
X42084Y4000D01*
G54D10*
X42084Y3112D02*
X41373Y4000D01*
X40662Y4000D01*
G54D10*
X35329Y5778D02*
X35329Y1334D01*
X35685Y445D01*
X36396Y0D01*
X37107Y0D01*
X37818Y445D01*
X38174Y1334D01*
X38174Y5778D01*
X37818Y6667D01*
X37107Y7112D01*
X36396Y7112D01*
X35685Y6667D01*
X35329Y5778D01*
G54D10*
X32840Y0D02*
X32840Y0D01*
G54D10*
X30352Y4445D02*
X28574Y7112D01*
X28574Y0D01*
M02*
