%FSLAX34Y34*%
%MOMM*%
%LNSMDMASK_TOP*%
G71*
G01*
%ADD10R, 0.800X0.300*%
%ADD11R, 0.300X0.800*%
%ADD12R, 0.800X0.800*%
%ADD13R, 1.700X1.700*%
%ADD14R, 0.800X0.899*%
%LPD*%
X15002Y-2500D02*
G54D10*
D03*
X15002Y-7502D02*
G54D10*
D03*
X15002Y2501D02*
G54D10*
D03*
X-15000Y-2500D02*
G54D10*
D03*
X-15000Y-7502D02*
G54D10*
D03*
X-15001Y2501D02*
G54D10*
D03*
X2501Y-15002D02*
G54D11*
D03*
X7502Y-15002D02*
G54D11*
D03*
G36*
X-19000Y9001D02*
X-11000Y9001D01*
X-11000Y6001D01*
X-19000Y6001D01*
X-19000Y9001D01*
G37*
X-2500Y-15001D02*
G54D11*
D03*
X-7499Y-15001D02*
G54D11*
D03*
X2501Y15001D02*
G54D11*
D03*
X7502Y15002D02*
G54D11*
D03*
X15002Y7501D02*
G54D10*
D03*
X-2500Y15001D02*
G54D11*
D03*
X-7499Y15001D02*
G54D11*
D03*
X-2500Y15001D02*
G54D11*
D03*
X-7500Y45877D02*
G54D12*
D03*
X-7499Y30876D02*
G54D12*
D03*
X34133Y-7500D02*
G54D12*
D03*
X34132Y7501D02*
G54D12*
D03*
X0Y0D02*
G54D13*
D03*
X80913Y7501D02*
G54D14*
D03*
X61914Y7501D02*
G54D14*
D03*
X71413Y-13505D02*
G54D14*
D03*
X95994Y7501D02*
G54D12*
D03*
X95995Y-7499D02*
G54D12*
D03*
X46833Y-7499D02*
G54D12*
D03*
X46832Y7501D02*
G54D12*
D03*
X22640Y106364D02*
G54D12*
D03*
X7640Y106363D02*
G54D12*
D03*
X-6647Y106363D02*
G54D12*
D03*
X-21648Y106362D02*
G54D12*
D03*
M02*
