%FSLAX34Y34*%
%MOMM*%
%LNCOPPER_BOTTOM*%
G71*
G01*
%ADD10C, 6.200*%
%ADD11C, 2.400*%
%ADD12C, 0.900*%
%ADD13C, 0.650*%
%ADD14C, 0.400*%
%ADD15C, 1.600*%
%ADD16C, 0.800*%
%ADD17C, 0.500*%
%ADD18C, 0.250*%
%LPD*%
G36*
X-225608Y235608D02*
X274392Y235608D01*
X274392Y-264392D01*
X-225608Y-264392D01*
X-225608Y235608D01*
G37*
%LPC*%
X-67175Y67175D02*
G54D10*
D03*
X67175Y-67175D02*
G54D10*
D03*
X56568Y56568D02*
G54D10*
D03*
X-56569Y-56568D02*
G54D10*
D03*
X67175Y67175D02*
G54D10*
D03*
X-67175Y-67175D02*
G54D10*
D03*
X56569Y-56570D02*
G54D10*
D03*
X-56568Y56567D02*
G54D10*
D03*
X-50800Y-115570D02*
G54D11*
D03*
X-25400Y-115570D02*
G54D11*
D03*
X0Y-115570D02*
G54D11*
D03*
X25400Y-115570D02*
G54D11*
D03*
X50800Y-115570D02*
G54D11*
D03*
X-38100Y-140970D02*
G54D11*
D03*
X-12700Y-140970D02*
G54D11*
D03*
X12700Y-140970D02*
G54D11*
D03*
X38100Y-140970D02*
G54D11*
D03*
X-15000Y-10864D02*
G54D12*
D03*
G54D13*
X-38100Y-140970D02*
X-38100Y-110509D01*
X-19347Y-91756D01*
X-19347Y-15211D01*
X-15000Y-10864D01*
X-8293Y-21352D02*
G54D12*
D03*
X-674Y-40402D02*
G54D12*
D03*
G54D13*
X-12700Y-140970D02*
X-12700Y-107334D01*
X-9822Y-104456D01*
X-9822Y-49550D01*
X-674Y-40402D01*
X22940Y7500D02*
G54D12*
D03*
G54D13*
X38100Y-140970D02*
X38100Y-110310D01*
X15578Y-87788D01*
X15002Y-2501D01*
X22940Y7500D01*
G54D13*
X50800Y-115570D02*
X21134Y-85904D01*
X21134Y-26988D01*
X34617Y-13505D01*
X96019Y-13505D01*
G54D13*
X12700Y-140970D02*
X12700Y-107334D01*
X9822Y-104456D01*
X9822Y-39467D01*
X-8293Y-21352D01*
X96019Y-13505D02*
G54D12*
D03*
X-84853Y84853D02*
G54D10*
D03*
X84853Y-84853D02*
G54D10*
D03*
X84853Y84853D02*
G54D10*
D03*
X-84853Y-84853D02*
G54D10*
D03*
X-77782Y77782D02*
G54D10*
D03*
X77782Y-77782D02*
G54D10*
D03*
X77782Y77782D02*
G54D10*
D03*
X-77782Y-77782D02*
G54D10*
D03*
%LPD*%
G54D14*
G36*
X-52214Y-114156D02*
X-43375Y-105317D01*
X-40547Y-108146D01*
X-49386Y-116984D01*
X-52214Y-114156D01*
G37*
G36*
X-48800Y-115570D02*
X-48800Y-128070D01*
X-52800Y-128070D01*
X-52800Y-115570D01*
X-48800Y-115570D01*
G37*
G36*
X-50800Y-117570D02*
X-63300Y-117570D01*
X-63300Y-113570D01*
X-50800Y-113570D01*
X-50800Y-117570D01*
G37*
X-50800Y-115570D02*
G54D15*
D03*
X-25400Y-115570D02*
G54D15*
D03*
X0Y-115570D02*
G54D15*
D03*
X25400Y-115570D02*
G54D15*
D03*
X50800Y-115570D02*
G54D15*
D03*
X-38100Y-140970D02*
G54D15*
D03*
X-12700Y-140970D02*
G54D15*
D03*
X12700Y-140970D02*
G54D15*
D03*
X38100Y-140970D02*
G54D15*
D03*
X0Y0D02*
G54D16*
D03*
X-15000Y-10864D02*
G54D17*
D03*
G54D18*
X-38100Y-140970D02*
X-38100Y-110509D01*
X-19347Y-91756D01*
X-19347Y-15211D01*
X-15000Y-10864D01*
X-8293Y-21352D02*
G54D17*
D03*
X-674Y-40402D02*
G54D17*
D03*
G54D18*
X-12700Y-140970D02*
X-12700Y-107334D01*
X-9822Y-104456D01*
X-9822Y-49550D01*
X-674Y-40402D01*
X22940Y7500D02*
G54D17*
D03*
G54D18*
X38100Y-140970D02*
X38100Y-110310D01*
X15578Y-87788D01*
X15002Y-2501D01*
X22940Y7500D01*
G54D18*
X50800Y-115570D02*
X21134Y-85904D01*
X21134Y-26988D01*
X34617Y-13505D01*
X96019Y-13505D01*
G54D18*
X12700Y-140970D02*
X12700Y-107334D01*
X9822Y-104456D01*
X9822Y-39467D01*
X-8293Y-21352D01*
X170000Y0D02*
G54D17*
D03*
X-170000Y0D02*
G54D17*
D03*
X0Y170000D02*
G54D17*
D03*
X0Y-170000D02*
G54D17*
D03*
X17383Y-100131D02*
G54D17*
D03*
X96019Y-13505D02*
G54D17*
D03*
X71413Y7501D02*
G54D17*
D03*
X2878Y-50800D02*
G54D17*
D03*
X2878Y-69850D02*
G54D17*
D03*
X-9822Y-28575D02*
G54D17*
D03*
X21928Y-15875D02*
G54D17*
D03*
X-54272Y0D02*
G54D17*
D03*
X-1884Y73025D02*
G54D17*
D03*
M02*
