%FSLAX34Y34*%
%MOMM*%
%LNSOLDERMASK_TOP*%
G71*
G01*
%ADD10R, 1.000X0.500*%
%ADD11R, 0.500X1.000*%
%ADD12C, 2.200*%
%ADD13R, 1.000X1.000*%
%ADD14R, 1.900X1.900*%
%ADD15R, 1.000X1.099*%
%ADD16C, 0.200*%
%LPD*%
X15002Y-2501D02*
G54D10*
D03*
X15002Y-7502D02*
G54D10*
D03*
X15002Y2500D02*
G54D10*
D03*
X-15000Y-2501D02*
G54D10*
D03*
X-15000Y-7502D02*
G54D10*
D03*
X-15001Y2500D02*
G54D10*
D03*
X2501Y-15002D02*
G54D11*
D03*
X7502Y-15002D02*
G54D11*
D03*
G36*
X-20000Y10000D02*
X-10000Y10000D01*
X-10000Y5000D01*
X-20000Y5000D01*
X-20000Y10000D01*
G37*
X-2500Y-15002D02*
G54D11*
D03*
X-7499Y-15002D02*
G54D11*
D03*
X2501Y15000D02*
G54D11*
D03*
X7502Y15002D02*
G54D11*
D03*
X15002Y7500D02*
G54D10*
D03*
X-2500Y15000D02*
G54D11*
D03*
X-7499Y15001D02*
G54D11*
D03*
X-2500Y15000D02*
G54D11*
D03*
X-50800Y-115570D02*
G54D12*
D03*
X-25400Y-115570D02*
G54D12*
D03*
X0Y-115570D02*
G54D12*
D03*
X25400Y-115570D02*
G54D12*
D03*
X50800Y-115570D02*
G54D12*
D03*
X-38100Y-140970D02*
G54D12*
D03*
X-12700Y-140970D02*
G54D12*
D03*
X12700Y-140970D02*
G54D12*
D03*
X38100Y-140970D02*
G54D12*
D03*
X-7500Y45876D02*
G54D13*
D03*
X-7499Y30876D02*
G54D13*
D03*
X34133Y-7500D02*
G54D13*
D03*
X34132Y7500D02*
G54D13*
D03*
X0Y0D02*
G54D14*
D03*
X80913Y7501D02*
G54D15*
D03*
X61914Y7501D02*
G54D15*
D03*
X71413Y-13505D02*
G54D15*
D03*
X95994Y7501D02*
G54D13*
D03*
X95995Y-7500D02*
G54D13*
D03*
X46833Y-7500D02*
G54D13*
D03*
X46832Y7501D02*
G54D13*
D03*
X22640Y106363D02*
G54D13*
D03*
X7640Y106362D02*
G54D13*
D03*
X-6647Y106362D02*
G54D13*
D03*
X-21648Y106362D02*
G54D13*
D03*
G36*
X5995Y49489D02*
X5995Y38376D01*
X9170Y41551D01*
X12345Y41551D01*
X15520Y38376D01*
X15520Y49489D01*
X5995Y49489D01*
G37*
G54D16*
X5995Y49489D02*
X5995Y38376D01*
X9170Y41551D01*
X12345Y41551D01*
X15520Y38376D01*
X15520Y49489D01*
X5995Y49489D01*
G36*
X5995Y35201D02*
X9170Y38376D01*
X12345Y38376D01*
X15520Y35201D01*
X15520Y27264D01*
X5995Y27264D01*
X5995Y35201D01*
G37*
G54D16*
X5995Y35201D02*
X9170Y38376D01*
X12345Y38376D01*
X15520Y35201D01*
X15520Y27264D01*
X5995Y27264D01*
X5995Y35201D01*
M02*
